<svg xmlns="http://www.w3.org/2000/svg" width="31.113" height="16.917" viewBox="0 0 31.113 16.917">
  <path id="Icon_awesome-arrow-right" data-name="Icon awesome-arrow-right" d="M-85.755,3.665l-.755-.78a.845.845,0,0,0-1.175,0L-94.42,9.427a.789.789,0,0,0,0,1.142l6.735,6.546a.845.845,0,0,0,1.175,0l.769-.748a.793.793,0,0,0-.014-1.155l-4.175-3.866h23.547a.818.818,0,0,0,.831-.808V9.461a.818.818,0,0,0-.831-.808H-89.93l4.175-3.866C-85.415,4.474-85.755,3.665-85.755,3.665Z" transform="translate(-64.551 18.459) rotate(180)" fill="#ff4d00" stroke="#0c0c0c" stroke-width="2"/>
</svg>
