<svg id="DPR_Logo_mitFreiraum" xmlns="http://www.w3.org/2000/svg" width="130.887" height="39.841" viewBox="0 0 130.887 39.841">
  <path id="Pfad_1" data-name="Pfad 1" d="M88.344,26.714A17.59,17.59,0,0,1,87.113,33.6a12.762,12.762,0,0,1-3.474,4.839A14.78,14.78,0,0,1,78.266,41.3a23.451,23.451,0,0,1-6.862.949c-1.231,0-2.588-.047-4.07-.157a23.426,23.426,0,0,1-4.023-.6V11.923a24.221,24.221,0,0,1,4.023-.6c1.482-.1,2.839-.157,4.07-.157a23.413,23.413,0,0,1,6.862.949,14.78,14.78,0,0,1,5.372,2.863,12.8,12.8,0,0,1,3.474,4.839,17.644,17.644,0,0,1,1.231,6.886Zm-16.6,11.8q6.07,0,9.066-3.1t3-8.69q0-5.588-3-8.69t-9.066-3.1c-1.2,0-2.133.016-2.792.039s-1.122.063-1.388.086V38.384c.267.031.729.063,1.388.086S70.549,38.51,71.749,38.51Z" transform="translate(-13.658 -2.41)" fill="#fff"/>
  <path id="Pfad_2" data-name="Pfad 2" d="M111.412,11.178q6.423,0,9.882,2.439a8.331,8.331,0,0,1,3.451,7.286,9.844,9.844,0,0,1-.949,4.51,7.758,7.758,0,0,1-2.729,3.035,12.536,12.536,0,0,1-4.337,1.694,28.533,28.533,0,0,1-5.764.525h-3.388V41.976H103.31V11.923a24.221,24.221,0,0,1,4.023-.6c1.482-.1,2.839-.157,4.07-.157Zm.353,3.741c-1.82,0-3.216.039-4.18.133V27.02H110.8a24.161,24.161,0,0,0,3.961-.29,8.893,8.893,0,0,0,2.972-.965,4.787,4.787,0,0,0,1.874-1.874,6.214,6.214,0,0,0,.659-3.035,5.443,5.443,0,0,0-.682-2.9,5.167,5.167,0,0,0-1.851-1.827,8.064,8.064,0,0,0-2.706-.949,19.6,19.6,0,0,0-3.255-.267Z" transform="translate(-22.287 -2.41)" fill="#fff"/>
  <path id="Pfad_3" data-name="Pfad 3" d="M152.355,29.224c.471.588,1.059,1.357,1.78,2.314s1.459,2.008,2.219,3.168,1.521,2.368,2.267,3.631a36.7,36.7,0,0,1,1.914,3.655h-4.666q-.882-1.67-1.914-3.388t-2.094-3.278q-1.059-1.565-2.086-2.925c-.69-.91-1.31-1.7-1.867-2.376-.384.031-.769.047-1.169.047H141.7V42H137.43V11.923a24.221,24.221,0,0,1,4.023-.6c1.482-.1,2.839-.157,4.07-.157q6.423,0,9.8,2.416a8.319,8.319,0,0,1,3.365,7.215,8.419,8.419,0,0,1-1.608,5.192,9.529,9.529,0,0,1-4.729,3.216Zm-6.47-14.305c-1.82,0-3.216.039-4.18.133v11.49h3.035a31.669,31.669,0,0,0,3.961-.22,8.938,8.938,0,0,0,2.972-.839,4.405,4.405,0,0,0,1.867-1.741,5.837,5.837,0,0,0,.659-2.972,5.683,5.683,0,0,0-.659-2.863,4.91,4.91,0,0,0-1.78-1.8,7.911,7.911,0,0,0-2.643-.925,19.175,19.175,0,0,0-3.231-.267Z" transform="translate(-29.648 -2.41)" fill="#fff"/>
  <path id="Pfad_4" data-name="Pfad 4" d="M35.291,0H19.253A7.332,7.332,0,0,0,11.92,7.333v4.572h3.443v-3.6a4.862,4.862,0,0,1,4.862-4.862H34.319a4.862,4.862,0,0,1,4.862,4.862V22.4a4.862,4.862,0,0,1-4.862,4.862H31.182A18.414,18.414,0,0,0,31.55,30.7h3.741a7.332,7.332,0,0,0,7.333-7.333V7.333A7.332,7.332,0,0,0,35.291,0Z" transform="translate(-2.571)" fill="#ff4d00"/>
  <path id="Pfad_5" data-name="Pfad 5" d="M23.363,11.418H7.333A7.325,7.325,0,0,0,0,18.743V34.781a7.332,7.332,0,0,0,7.333,7.333H23.371A7.332,7.332,0,0,0,30.7,34.781V18.743a7.332,7.332,0,0,0-7.333-7.333Zm3.89,22.391a4.862,4.862,0,0,1-4.862,4.862H8.3a4.862,4.862,0,0,1-4.862-4.862V19.715A4.862,4.862,0,0,1,8.3,14.853H22.391a4.862,4.862,0,0,1,4.862,4.862Z" transform="translate(0 -2.461)" fill="#fff"/>
</svg>
