<svg xmlns="http://www.w3.org/2000/svg" width="43.512" height="43.512" viewBox="0 0 43.512 43.512">
  <g id="Group_185" data-name="Group 185" transform="translate(0 0)">
    <path id="Path_2529" data-name="Path 2529" d="M1786.8,793.528a1.064,1.064,0,0,1,.432.985c-.016,2.393,0,4.786-.013,7.178a.846.846,0,0,0,.274.666c1.36,1.343,2.708,2.7,4.058,4.051a2.114,2.114,0,0,1,.31.347.622.622,0,0,1-.108.847.615.615,0,0,1-.817.077,2.493,2.493,0,0,1-.377-.34c-1.353-1.35-2.7-2.707-4.063-4.046a.92.92,0,0,0-.582-.239q-3.61-.024-7.221,0a1.065,1.065,0,0,1-.985-.432v-9.092Z" transform="translate(-1777.706 -793.528)" fill="#fff"/>
    <path id="Path_2530" data-name="Path 2530" d="M2048.966,793.528a1.065,1.065,0,0,1,.432.985c-.015,2.534-.007,5.069-.008,7.6,0,.716-.215.927-.942.927-2.407,0-4.814,0-7.221-.005a.847.847,0,0,0-.666.274c-1.353,1.37-2.719,2.728-4.081,4.089a2.038,2.038,0,0,1-.315.283.671.671,0,0,1-.931-.933,2.05,2.05,0,0,1,.285-.313c1.371-1.373,2.747-2.74,4.106-4.124a.921.921,0,0,0,.239-.582q.024-3.61,0-7.221a1.059,1.059,0,0,1,.432-.985Z" transform="translate(-2005.886 -793.528)" fill="#fff"/>
    <path id="Path_2531" data-name="Path 2531" d="M1777.707,1056.228a1.06,1.06,0,0,1,.985-.432q3.61.024,7.221,0a.92.92,0,0,0,.582-.239c1.374-1.349,2.731-2.715,4.093-4.076a2.239,2.239,0,0,1,.347-.311.616.616,0,0,1,.817.077.622.622,0,0,1,.108.847,2.116,2.116,0,0,1-.31.347c-1.36,1.363-2.727,2.72-4.075,4.094a.92.92,0,0,0-.24.581c-.016,2.421-.01,4.842-.011,7.263,0,.727-.211.942-.927.942-2.534,0-5.069-.007-7.6.008a1.066,1.066,0,0,1-.985-.432Z" transform="translate(-1777.707 -1021.815)" fill="#fff"/>
    <path id="Path_2532" data-name="Path 2532" d="M1777.707,955.575a1.054,1.054,0,0,1,.984-.433c1.642.019,3.284.007,4.927.008.662,0,.883.228.886.9,0,.592,0,1.183,0,1.821h1.8c.736,0,1.472-.007,2.208,0a.679.679,0,1,1,0,1.353c-1.316.008-2.632,0-4.015,0,0,.6,0,1.19,0,1.777,0,.727-.211.941-.928.942-1.628,0-3.256-.011-4.884.008a1.061,1.061,0,0,1-.985-.433Z" transform="translate(-1777.707 -936.797)" fill="#fff"/>
    <path id="Path_2533" data-name="Path 2533" d="M1945.7,793.528a1.06,1.06,0,0,1,.433.985c-.019,1.642-.007,3.284-.009,4.926,0,.66-.229.883-.9.886-.591,0-1.182,0-1.82,0,0,.895.027,1.755-.017,2.612a1,1,0,0,1-.37.688c-.433.3-.959-.069-.968-.647-.012-.863,0-1.726,0-2.654h-1.779c-.727,0-.94-.211-.94-.929,0-1.628.011-3.256-.008-4.884a1.054,1.054,0,0,1,.433-.985Z" transform="translate(-1920.976 -793.528)" fill="#fff"/>
    <path id="Path_2534" data-name="Path 2534" d="M2049.546,1060.588c0,1.3,0,2.6,0,3.906,0,.613-.238.856-.841.857q-3.927,0-7.854,0c-.576,0-.818-.249-.819-.835,0-2.434-.006-4.868.005-7.3a.891.891,0,0,0-.285-.7c-1.35-1.332-2.687-2.677-4.027-4.018-.08-.08-.165-.156-.239-.241a.666.666,0,0,1-.007-.955.656.656,0,0,1,.952-.013c.213.186.4.4.6.6,1.211,1.21,2.429,2.414,3.627,3.638a1.021,1.021,0,0,0,.815.328c2.377-.013,4.755-.008,7.133-.007.724,0,.936.211.937.931q0,1.911,0,3.821" transform="translate(-2006.041 -1021.848)" fill="#fff"/>
    <path id="Path_2535" data-name="Path 2535" d="M1891.478,946.764l4.706,2.744c1.051.613,2.106,1.217,3.146,1.848a.629.629,0,0,1,.273.445c.016,3.1.012,6.2.011,9.3a1.547,1.547,0,0,1-.021.163c-.109-.05-.21-.086-.3-.14q-3.666-2.136-7.332-4.273a.869.869,0,0,1-.505-.81q.01-4.524,0-9.047c0-.054.008-.109.018-.232" transform="translate(-1878.543 -929.37)" fill="#fff"/>
    <path id="Path_2536" data-name="Path 2536" d="M1975.312,961.667v-5.2c0-1.416-.006-2.831.009-4.247a.592.592,0,0,1,.205-.442q3.892-2.294,7.8-4.557a.655.655,0,0,1,.117-.033c.008.111.022.214.022.318,0,2.945,0,5.889.006,8.834a.9.9,0,0,1-.472.873q-3.725,2.161-7.441,4.336c-.058.034-.121.061-.248.123" transform="translate(-1952.88 -929.742)" fill="#fff"/>
    <path id="Path_2537" data-name="Path 2537" d="M1897.744,900.074l2.62-1.529q2.491-1.454,4.979-2.91a.829.829,0,0,1,.913-.079c2.563,1.5,5.128,2.989,7.737,4.509a3.414,3.414,0,0,1-.276.2q-3.753,2.192-7.508,4.383a.524.524,0,0,1-.614.041c-2.534-1.491-5.076-2.967-7.615-4.449-.071-.041-.135-.1-.237-.169" transform="translate(-1884.118 -883.881)" fill="#fff"/>
    <path id="Path_2538" data-name="Path 2538" d="M2064.344,959.286c-1.341,0-2.626.01-3.912-.01a.928.928,0,0,1-.641-.227.91.91,0,0,1-.134-.689c.069-.326.366-.435.694-.435q1.761,0,3.523,0h.469c0-.617,0-1.206,0-1.8,0-.7.216-.922.9-.923q2.5,0,5.008,0c.662,0,.886.227.887.9q0,2.5,0,5.008c0,.665-.227.892-.89.893q-2.5,0-5.008,0c-.669,0-.9-.224-.9-.885,0-.592,0-1.185,0-1.834" transform="translate(-2027.637 -936.854)" fill="#fff"/>
    <path id="Path_2539" data-name="Path 2539" d="M1942.1,1090.38c0-.891,0-1.724,0-2.557,0-.531.261-.843.685-.839s.67.314.672.852c0,.832,0,1.663,0,2.543.637,0,1.24,0,1.844,0,.639,0,.874.232.875.865q0,2.525,0,5.05c0,.642-.232.88-.859.881q-2.547,0-5.093,0c-.606,0-.843-.241-.844-.853q0-2.546,0-5.093c0-.611.237-.846.846-.85s1.212,0,1.872,0" transform="translate(-1921.03 -1053.673)" fill="#fff"/>
  </g>
</svg>
