<svg xmlns="http://www.w3.org/2000/svg" width="33.381" height="44.404" viewBox="0 0 33.381 44.404">
  <path id="Path_2528" data-name="Path 2528" d="M672.682,968.04h-.174c-.212-.118-.419-.246-.637-.351a49.849,49.849,0,0,1-7.479-4.291,19.965,19.965,0,0,1-5.96-6.454,21.176,21.176,0,0,1-2.5-10.265c-.057-5.429-.016-10.858-.031-16.288a.578.578,0,0,1,.436-.652q7.969-3.014,15.93-6.046a1,1,0,0,1,.649-.005q7.967,3.015,15.928,6.049a.549.549,0,0,1,.438.61c-.015,5.125.016,10.251-.026,15.376a35.451,35.451,0,0,1-.347,4.712,18.113,18.113,0,0,1-6.21,11.453,34.911,34.911,0,0,1-6.637,4.409c-1.121.594-2.256,1.163-3.384,1.744m6.248-31.15-9.028,9.028-4.189-4.192-4.078,4.079,8.16,8.163L682.9,940.864l-3.971-3.973" transform="translate(-655.905 -923.636)" fill="#fff"/>
</svg>
