<svg xmlns="http://www.w3.org/2000/svg" width="43.707" height="57.15" viewBox="0 0 43.707 57.15">
  <g id="Group_187" data-name="Group 187" transform="translate(0)">
    <rect id="Rectangle_139" data-name="Rectangle 139" width="3.351" height="6.675" transform="translate(15.136)" fill="#fff"/>
    <path id="Path_2540" data-name="Path 2540" d="M913.188,86.192,897.661,70.668c.444-.4.926-.806,1.368-1.248a9.519,9.519,0,0,0,.014-13.94q-1.655-1.662-3.315-3.319c-.129-.129-.25-.266-.4-.424,1.2-1.256,2.332-2.553,4.165-2.85a5.5,5.5,0,0,1,3.59.742,15.674,15.674,0,0,1,4.809,4.432c.586.763,1.12,1.565,1.7,2.386.158-.15.305-.284.445-.424Q920.4,45.652,930.76,35.28a3.4,3.4,0,0,1,4.128-.739,3.354,3.354,0,0,1,.855,5.247c-.849.913-1.754,1.773-2.635,2.655-2.117,2.119-4.236,4.236-6.34,6.4a3.849,3.849,0,0,1,2.5-.345,3.119,3.119,0,0,1,2.057,1.426c1.137,1.9.526,3.473-1.1,4.9,2.154-.748,3.614-.469,4.552.91a3.826,3.826,0,0,1,.637,1.69,3.592,3.592,0,0,1-.307,1.721,9.1,9.1,0,0,1-1.082,1.537l.531-.183a3.357,3.357,0,0,1,3.778,5.2,6.308,6.308,0,0,1-.562.62q-5.36,5.38-10.72,10.762a13.982,13.982,0,0,1-4.631,3.139c-1.768.733-3.524,1.5-5.278,2.264a2.654,2.654,0,0,0-.772.524c-1.076,1.052-2.132,2.123-3.194,3.186" transform="translate(-895.33 -29.041)" fill="#fff"/>
    <path id="Path_2541" data-name="Path 2541" d="M1049.492,17.512l-4.638,4.607-2.256-2.256,4.621-4.62,2.272,2.268" transform="translate(-1020.622 -12.969)" fill="#fff"/>
    <path id="Path_2542" data-name="Path 2542" d="M929.43,15.394l4.616,4.592L931.8,22.235l-4.6-4.6,2.231-2.239" transform="translate(-922.443 -13.096)" fill="#fff"/>
  </g>
</svg>
