<svg xmlns="http://www.w3.org/2000/svg" width="49.596" height="49.575" viewBox="0 0 49.596 49.575">
  <g id="Group_190" data-name="Group 190" transform="translate(0 0)">
    <path id="Path_2544" data-name="Path 2544" d="M1230.053,1287.054a2.415,2.415,0,0,1,1.644,2.638,3.9,3.9,0,0,1-.619,2.106,16.478,16.478,0,0,0,10.653,24.854c1.033.223,2.112.224,3.167.354a.674.674,0,0,1,.469.279,15.1,15.1,0,0,0,3.655,4.767,3.433,3.433,0,0,1,1.1,3.639,3.553,3.553,0,0,1-3.2,2.664,5.082,5.082,0,0,1-.532.023q-16.776,0-33.552,0a3.624,3.624,0,0,1-3.577-2.172,3.531,3.531,0,0,1,.978-4.212,14.311,14.311,0,0,0,3.8-5.181,13.418,13.418,0,0,0,1.093-5.123c.023-1.92.009-3.841.009-5.761a14.431,14.431,0,0,1,12.191-14.543,1.833,1.833,0,0,0,.2-.072c0-.552.031-1.128-.007-1.7a2.271,2.271,0,0,1,1.652-2.563Z" transform="translate(-1208.927 -1287.054)" fill="#fff"/>
    <path id="Path_2545" data-name="Path 2545" d="M1470.013,1301.58c-.189.913-.317,1.843-.576,2.736a13.422,13.422,0,1,1-15.04-17.077c.364-.057.727-.123,1.09-.184h2.227a2.2,2.2,0,0,0,.32.084,13.413,13.413,0,0,1,11.482,9.762c.22.8.334,1.634.5,2.452Zm-14.453-3.174v.579c0,2.016-.005,4.032,0,6.047a1.546,1.546,0,1,0,3.088.073q.029-4.112,0-8.224a1.47,1.47,0,0,0-1.38-1.539,22.957,22.957,0,0,0-2.947.006,1.485,1.485,0,0,0-1.35,1.606,1.546,1.546,0,0,0,1.527,1.45c.333.012.668,0,1.06,0" transform="translate(-1420.416 -1287.054)" fill="#fff"/>
    <path id="Path_2546" data-name="Path 2546" d="M1359.216,1734.506a7.707,7.707,0,0,1-15.1,0Z" transform="translate(-1330.998 -1691.091)" fill="#fff"/>
  </g>
</svg>
