<svg xmlns="http://www.w3.org/2000/svg" width="30.438" height="53.744" viewBox="0 0 30.438 53.744">
  <path id="Path_2543" data-name="Path 2543" d="M27.078,718.308a4.866,4.866,0,0,1,2.12,1.072,4.045,4.045,0,0,1,1.236,3.016q0,2.073,0,4.145,0,20.622,0,41.244a3.873,3.873,0,0,1-2.228,3.837,4.407,4.407,0,0,1-1.816.407q-11.177.04-22.354.012A3.919,3.919,0,0,1,0,767.837q0-19.1,0-38.2v-6.559c0-2.823.736-3.868,3.357-4.769Zm.407,6.647H2.971V759.6H27.485Zm-12.213-4.26c-1.766,0-3.532.019-5.3-.011-.568-.01-.812.224-.839.932-.025.677.241.963.865.963q5.218,0,10.436,0c.624,0,.872-.283.868-.963,0-.66-.236-.919-.842-.92q-2.6,0-5.192,0m-.051,42.513a2.482,2.482,0,1,0,2.495,2.495,2.5,2.5,0,0,0-2.495-2.495" transform="translate(0.001 -718.308)" fill="#fff"/>
</svg>
