<svg xmlns="http://www.w3.org/2000/svg" width="35.033" height="34.683" viewBox="0 0 35.033 34.683">
  <g id="DPR_Logo_mitFreiraum" transform="translate(0 0)">
    <path id="Pfad_4" data-name="Pfad 4" d="M32.362,0H18.334A6.413,6.413,0,0,0,11.92,6.414v4h3.011V7.265a4.252,4.252,0,0,1,4.253-4.253H31.512a4.252,4.252,0,0,1,4.253,4.253V19.592a4.252,4.252,0,0,1-4.253,4.253H28.768a16.106,16.106,0,0,0,.322,3.011h3.272a6.413,6.413,0,0,0,6.414-6.414V6.414A6.413,6.413,0,0,0,32.362,0Z" transform="translate(-3.743 0)" fill="#ff4d00"/>
    <path id="Pfad_5" data-name="Pfad 5" d="M20.435,11.417H6.414A6.407,6.407,0,0,0,0,17.824V31.852a6.413,6.413,0,0,0,6.414,6.414H20.442a6.413,6.413,0,0,0,6.414-6.414V17.824a6.413,6.413,0,0,0-6.414-6.414ZM23.838,31a4.252,4.252,0,0,1-4.253,4.253H7.258A4.252,4.252,0,0,1,3,31V18.675a4.252,4.252,0,0,1,4.253-4.253H19.585a4.252,4.252,0,0,1,4.253,4.253Z" transform="translate(0 -3.583)"/>
  </g>
</svg>
