<svg id="DPR_Logo_mitFreiraum" xmlns="http://www.w3.org/2000/svg" width="52.51" height="51.985" viewBox="0 0 52.51 51.985">
  <path id="Path_4" data-name="Path 4" d="M42.56,0H21.534A9.612,9.612,0,0,0,11.92,9.614v5.994h4.514V10.889a6.374,6.374,0,0,1,6.375-6.375H41.285a6.374,6.374,0,0,1,6.375,6.375V29.365a6.374,6.374,0,0,1-6.375,6.375H37.172a24.141,24.141,0,0,0,.483,4.514h4.9a9.612,9.612,0,0,0,9.614-9.614V9.614A9.612,9.612,0,0,0,42.56,0Z" transform="translate(0.336)" fill="#ff4d00"/>
  <path id="Path_5" data-name="Path 5" d="M30.63,11.42H9.614A9.6,9.6,0,0,0,0,21.024V42.05a9.612,9.612,0,0,0,9.614,9.614H30.64a9.612,9.612,0,0,0,9.614-9.614V21.024A9.612,9.612,0,0,0,30.64,11.41Zm5.1,29.355a6.374,6.374,0,0,1-6.375,6.375H10.878A6.374,6.374,0,0,1,4.5,40.775V22.3a6.374,6.374,0,0,1,6.375-6.375H29.355A6.374,6.374,0,0,1,35.73,22.3Z" transform="translate(0 0.322)"/>
</svg>
