<svg id="Gruppe_29" data-name="Gruppe 29" xmlns="http://www.w3.org/2000/svg" xmlns:xlink="http://www.w3.org/1999/xlink" width="169.921" height="47.139" viewBox="0 0 169.921 47.139">
  <defs>
    <clipPath id="clip-path">
      <rect id="Rechteck_44" data-name="Rechteck 44" width="169.921" height="47.139" fill="#8e8e8e"/>
    </clipPath>
  </defs>
  <g id="Gruppe_28" data-name="Gruppe 28" clip-path="url(#clip-path)">
    <path id="Pfad_75" data-name="Pfad 75" d="M685.272,155.183c-4.347-.534-8.53-1.2-12.809-2.035a49.371,49.371,0,0,0,3.072-14.558h27.916a63.234,63.234,0,0,0,3.731,16.94,83.643,83.643,0,0,1-13.489.329c0-.391,0-.733,0-1.075-.028-2.127-.039-4.254-.09-6.38a4.112,4.112,0,1,0-8.223,0c-.032,1.831-.028,3.663-.046,5.495,0,.379-.035.757-.062,1.284" transform="translate(-553.017 -113.973)" fill="#8e8e8e"/>
    <path id="Pfad_76" data-name="Pfad 76" d="M708.994,20.95h2.041v1.915H679.4V20.951h1.98V10.495h6.6v10.4h3.534V10.46l-1.485-.116v-1.8l1.3-.1c.047-.244.1-.493.143-.744a3.66,3.66,0,0,1,1.879-2.654c1.1-.623,1.106-.614.9-1.959l-1.2-.191V1.549l1.222-.144.13-1.4h1.617c.038.494.071.925.108,1.4l1.245.133v1.4l-1.236.12c-.024.489-.048.972-.074,1.5.269.124.506.228.737.341a3.831,3.831,0,0,1,2.063,2.631c.237.908.228.909,1.171.978a2.929,2.929,0,0,1,.386.087v1.775l-1.431.069a77.852,77.852,0,0,0-.074,10.46h3.5V10.539h6.572Z" transform="translate(-558.724)" fill="#8e8e8e"/>
    <path id="Pfad_77" data-name="Pfad 77" d="M484.01,216.413c0,.561,0,1.142,0,1.724,0,.516-.427.514-.746.591-2.268.547-4.53,1.13-6.815,1.6a87.164,87.164,0,0,1-19.47,1.787,103.192,103.192,0,0,1-15.433-1.439c-6.171-1.067-12.319-2.272-18.479-3.4a120.516,120.516,0,0,0-18.81-2.3,58.452,58.452,0,0,0-13.835,1.232c-2.681.58-5.311,1.4-7.964,2.1-.166.044-.334.08-.529.127v-2.222c.682-.225,1.345-.458,2.017-.662a65,65,0,0,1,22.511-2.665,123.428,123.428,0,0,1,16.331,2.148c4.879.92,9.739,1.947,14.634,2.764,4.222.7,8.477,1.23,12.728,1.742a77.688,77.688,0,0,0,12.488.328,88.375,88.375,0,0,0,17.849-2.677c1.089-.272,2.174-.56,3.262-.836.05-.013.111.021.26.053" transform="translate(-314.089 -174.995)" fill="#8e8e8e"/>
    <path id="Pfad_78" data-name="Pfad 78" d="M138.744,91.7h-2.828c-.019-.316-.05-.6-.052-.885-.006-1.594,0-3.189-.009-4.783a6.524,6.524,0,0,0-.061-.97,1.479,1.479,0,0,0-1.523-1.425A1.621,1.621,0,0,0,132.5,84.9a4.371,4.371,0,0,0-.106,1.049c-.01,1.886,0,3.772,0,5.732h-2.923V81.861h2.662l.16,1.079a3.958,3.958,0,0,1,3.262-1.374A3.337,3.337,0,0,1,138.5,83.35a3.491,3.491,0,0,1,3.421-1.75,3.161,3.161,0,0,1,3.24,3.095c.1,1.5.05,3.009.061,4.515.006.818,0,1.637,0,2.5h-2.861c-.021-.258-.056-.483-.056-.708,0-1.565,0-3.13-.006-4.694a7.908,7.908,0,0,0-.09-1.234,1.466,1.466,0,0,0-1.512-1.433,1.562,1.562,0,0,0-1.746,1.4,15.96,15.96,0,0,0-.156,2.291c-.023,1.151,0,2.3,0,3.454,0,.287-.028.575-.046.915" transform="translate(-106.467 -67.075)" fill="#8e8e8e"/>
    <path id="Pfad_79" data-name="Pfad 79" d="M408.273,93.217c.859,0,1.594-.029,2.324.019a.888.888,0,0,1,.573.4,1.815,1.815,0,0,0,2.092.921,1.688,1.688,0,0,0,1.427-1.587,11.7,11.7,0,0,0,.055-1.237,4.1,4.1,0,0,0-.033-.447,9.941,9.941,0,0,1-1.894.908,3.77,3.77,0,0,1-4.251-1.986,5.915,5.915,0,0,1-.017-5.62,3.856,3.856,0,0,1,6.131-1.078.982.982,0,0,0,.214.1l.2-.984h2.551c0,.587,0,1.164,0,1.741-.011,2.746.015,5.493-.048,8.238a3.356,3.356,0,0,1-2.968,3.62,7.7,7.7,0,0,1-4.455-.2,2.973,2.973,0,0,1-1.9-2.8m2.458-5.978c.1.626.138,1.131.267,1.61a1.835,1.835,0,0,0,3.565.115,4.932,4.932,0,0,0-.06-3.387,1.795,1.795,0,0,0-3.314-.1,12.9,12.9,0,0,0-.458,1.766" transform="translate(-335.404 -67.797)" fill="#8e8e8e"/>
    <path id="Pfad_80" data-name="Pfad 80" d="M233.858,59.019h2.8V64.2a1.718,1.718,0,0,0,.445-.2c1.308-1.335,4.159-1.2,5.615.6a6.825,6.825,0,0,1,.094,7.41c-1.372,1.774-4.577,1.9-5.794.272a1.767,1.767,0,0,0-.283-.22l-.16,1.1h-2.722Zm2.633,9.225a14.194,14.194,0,0,0,.553,2.069,1.876,1.876,0,0,0,2.084,1.16A1.782,1.782,0,0,0,240.7,70a5.7,5.7,0,0,0-.188-3.734,1.808,1.808,0,0,0-1.8-1.2,1.775,1.775,0,0,0-1.79,1.2,14.759,14.759,0,0,0-.434,1.974" transform="translate(-192.319 -48.536)" fill="#8e8e8e"/>
    <path id="Pfad_81" data-name="Pfad 81" d="M9.233,73.253H6.439a5.924,5.924,0,0,1-.073-.66c-.006-1.683,0-3.366-.006-5.049a5.687,5.687,0,0,0-.061-.969,1.472,1.472,0,0,0-1.378-1.383,1.717,1.717,0,0,0-1.9,1.118,3.322,3.322,0,0,0-.155,1.039c-.017,1.653-.011,3.307-.012,4.96,0,.288,0,.576,0,.927H0V59.122H2.782v5.321a2.131,2.131,0,0,0,.453-.265,3.7,3.7,0,0,1,4.275-.567,3.085,3.085,0,0,1,1.71,2.9c.046,2.212.013,4.425.013,6.747" transform="translate(0 -48.62)" fill="#8e8e8e"/>
    <path id="Pfad_82" data-name="Pfad 82" d="M70.484,84.829c.183-1.2-.157-1.868-1.02-2.058-.838-.184-1.377.234-1.734,1.369h-2.74a2.588,2.588,0,0,1,1.627-2.633,6.126,6.126,0,0,1,4.916-.023,2.692,2.692,0,0,1,1.752,2.458c.056.854.064,1.712.07,2.568.01,1.557,0,3.113,0,4.721H70.987L70.813,90.2a1.019,1.019,0,0,0-.286.158,3.466,3.466,0,0,1-3.109,1.153,2.79,2.79,0,0,1-2.7-1.8,3.337,3.337,0,0,1,.778-3.517,4.513,4.513,0,0,1,2.632-1.163c.785-.1,1.576-.134,2.353-.2m.059,1.8a3.112,3.112,0,0,0-2.423.386,1.948,1.948,0,0,0-.707,1.12,1.234,1.234,0,0,0,.841,1.385,1.6,1.6,0,0,0,1.811-.537,3.3,3.3,0,0,0,.479-2.354" transform="translate(-53.054 -66.598)" fill="#8e8e8e"/>
    <path id="Pfad_83" data-name="Pfad 83" d="M301.48,83.175h2.949c0,.341,0,.655,0,.97,0,1.8-.03,3.6.019,5.4a1.564,1.564,0,0,0,2.2,1.625,1.437,1.437,0,0,0,1.1-1.253,13.41,13.41,0,0,0,.136-1.852c.018-1.592.006-3.184.006-4.856h2.938v9.8h-2.615l-.179-.974a2.013,2.013,0,0,0-.345.213,3.822,3.822,0,0,1-5.083.253,3.3,3.3,0,0,1-1.12-2.773c-.016-1.742,0-3.485,0-5.227V83.175" transform="translate(-247.927 -68.401)" fill="#8e8e8e"/>
    <path id="Pfad_84" data-name="Pfad 84" d="M515.525,58.947h1.818V73.095H515.69l-.169-1.041a11.632,11.632,0,0,1-1.862,1.059,4.09,4.09,0,0,1-5.512-3.165,6.912,6.912,0,0,1,.587-4.908,4.072,4.072,0,0,1,6.543-.895c.034.033.1.033.248.077Zm.131,9.286a17.667,17.667,0,0,0-.344-2.025,2.653,2.653,0,0,0-2.584-1.905,2.384,2.384,0,0,0-2.475,1.863,6.78,6.78,0,0,0-.079,3.92,2.427,2.427,0,0,0,2.4,1.981,2.574,2.574,0,0,0,2.662-1.781,15.262,15.262,0,0,0,.423-2.053" transform="translate(-417.731 -48.477)" fill="#8e8e8e"/>
    <path id="Pfad_85" data-name="Pfad 85" d="M584.853,87.319h-7.06a2.95,2.95,0,0,0,1.835,3.46c1.545.409,2.579-.155,3.3-1.9h1.691a2.856,2.856,0,0,1-1.259,2.479,5.476,5.476,0,0,1-5.634.184,4.107,4.107,0,0,1-1.749-2.771,8.846,8.846,0,0,1,.087-3.781,4.105,4.105,0,0,1,3.52-3.174,7.833,7.833,0,0,1,1.238-.044,3.672,3.672,0,0,1,3.844,3.318c.12.685.121,1.39.188,2.23m-2.024-1.354c.07-1.931-.849-2.967-2.472-2.895a2.52,2.52,0,0,0-2.491,2.895Z" transform="translate(-473.534 -67.242)" fill="#8e8e8e"/>
    <path id="Pfad_86" data-name="Pfad 86" d="M372.914,92.522h-2.935V82.593h2.569c.03.462.06.936.105,1.652A3.241,3.241,0,0,1,376,82.58v2.57c-.361,0-.68-.014-1,0a1.966,1.966,0,0,0-2.085,2.13c-.023,1.709-.006,3.418-.006,5.24" transform="translate(-304.262 -67.891)" fill="#8e8e8e"/>
    <path id="Pfad_87" data-name="Pfad 87" d="M815.486,24.145c1.059.135,1.784-.151,2.051-1.344.348.509.514.973.841,1.169a4.3,4.3,0,0,0,1.43.233,1.64,1.64,0,0,0-.042,2.4,2.475,2.475,0,0,1-4.286.042,1.713,1.713,0,0,0,.007-2.505" transform="translate(-670.63 -18.751)" fill="#8e8e8e"/>
    <path id="Pfad_88" data-name="Pfad 88" d="M696.44,26.958c.754-.869.6-1.642-.172-2.568,1.233.262,1.917-.092,2.266-1.163a1.649,1.649,0,0,0,2.088,1.214c-.482,1.374-.482,1.374.018,2.5a3.347,3.347,0,0,0-1.272.155c-.343.2-.528.667-.882,1.153a1.633,1.633,0,0,0-2.046-1.3" transform="translate(-572.594 -19.101)" fill="#8e8e8e"/>
    <rect id="Rechteck_43" data-name="Rechteck 43" width="2.039" height="2.235" transform="translate(85.367 22.371)" fill="#8e8e8e"/>
  </g>
</svg>
