<svg id="Gruppe_27" data-name="Gruppe 27" xmlns="http://www.w3.org/2000/svg" xmlns:xlink="http://www.w3.org/1999/xlink" width="101.216" height="58.085" viewBox="0 0 101.216 58.085">
  <defs>
    <clipPath id="clip-path">
      <rect id="Rechteck_42" data-name="Rechteck 42" width="101.216" height="58.085" fill="#8e8e8e"/>
    </clipPath>
  </defs>
  <g id="Gruppe_26" data-name="Gruppe 26" clip-path="url(#clip-path)">
    <path id="Pfad_54" data-name="Pfad 54" d="M162.443,413.343H131.765c-.939,0-1.307-.279-1.326-.976a.943.943,0,0,1,.854-1.043,3.574,3.574,0,0,1,.678-.027h60.608c.249,0,.5,0,.748.006.741.025,1.159.4,1.162,1.038,0,.657-.385,1-1.164,1q-8.095,0-16.189,0H162.443" transform="translate(-112.667 -355.258)" fill="#8e8e8e"/>
    <path id="Pfad_55" data-name="Pfad 55" d="M296.608,18.82c.37-.54.706-1.107,1.119-1.611a21.818,21.818,0,0,1,1.526-1.638,1.351,1.351,0,0,0,.3-1.761,18.792,18.792,0,0,1-.684-1.907,2.012,2.012,0,0,1,.858-2.44c1.76-1.3,3.592-2.5,5.415-3.715a.882.882,0,0,1,.752-.031,24.4,24.4,0,0,1,5.678,4.033,2.331,2.331,0,0,1,.667,2.922c-.21.448-.309.946-.505,1.4a1.364,1.364,0,0,0,.41,1.7q1.038.927,2.079,1.85a1.281,1.281,0,0,1,.449,1.617,1.316,1.316,0,0,1-1.453.744c-2.964-.093-5.929-.174-8.893-.277-2.169-.075-4.337-.178-6.506-.27a.622.622,0,0,1-.372-.118c4.333-1.393,8.818-1.476,13.471-1.511-.235-.3-.392-.494-.543-.694q-.571-.755-1.136-1.513a1.7,1.7,0,0,1-.2-1.615c.314-.992.577-2,.955-2.97a1.563,1.563,0,0,0-.45-1.84,11.936,11.936,0,0,0-3.977-2.545,1.187,1.187,0,0,0-.839.024,11.164,11.164,0,0,0-3.691,2.72,1.273,1.273,0,0,0-.261,1.38c.333.96.618,1.936.913,2.909a1.76,1.76,0,0,1-.594,2.021c-1.421,1.109-2.887,2.161-4.334,3.237l-.157-.106" transform="translate(-256.198 -4.877)" fill="#8e8e8e"/>
    <path id="Pfad_56" data-name="Pfad 56" d="M449.157,15.113a51.094,51.094,0,0,1,16.615-1.521l.057-.215c-.4-.381-.79-.773-1.2-1.141-1.965-1.757-2.13-2.39-1.272-4.872.185-.534.306-1.092.509-1.619a2.109,2.109,0,0,0-.889-2.663c-1.227-.883-2.524-1.671-3.788-2.5-.157-.1-.3-.228-.45-.342L458.8,0a2.6,2.6,0,0,1,.894.1,24.219,24.219,0,0,1,6.415,4.4,2.475,2.475,0,0,1,.642,2.8c-.254.678-.456,1.375-.685,2.062a1.163,1.163,0,0,0,.382,1.4c.879.712,1.77,1.412,2.619,2.159a1.519,1.519,0,0,1,.514,1.933,1.868,1.868,0,0,1-1.967.886,28.762,28.762,0,0,0-8.379.016,26.483,26.483,0,0,1-9.128-.1c-.333-.069-.654-.2-.98-.3l.032-.228" transform="translate(-387.936)" fill="#8e8e8e"/>
    <path id="Pfad_57" data-name="Pfad 57" d="M174.744,270.138a17.856,17.856,0,0,1,2.144.029,1.272,1.272,0,0,1,.724.6c1.854,2.965,3.685,5.945,5.525,8.92.018.029.075.035.164.073v-9.579h1.831c.015.258.041.5.041.743q0,5.4,0,10.808c0,.969-.018.867-.936.995a2.3,2.3,0,0,1-2.549-1.431c-1.618-2.784-3.354-5.5-5.113-8.355v9.723h-1.833Z" transform="translate(-150.937 -233.318)" fill="#8e8e8e"/>
    <path id="Pfad_58" data-name="Pfad 58" d="M285.293,270.069c2.374.134,4.681-.331,6.871.562a5.17,5.17,0,0,1,3.271,4.377,7.968,7.968,0,0,1-.493,4.367,4.657,4.657,0,0,1-3.544,2.946,48.125,48.125,0,0,1-5.74.324c-.48.02-.361-.376-.362-.642q-.009-5.365,0-10.73v-1.205m2.227,10.739c1.963.074,3.9.228,5.087-1.621,1.061-1.649.961-4.656-.176-5.982-1.311-1.528-3.124-1.323-4.911-1.256Z" transform="translate(-246.417 -233.27)" fill="#8e8e8e"/>
    <path id="Pfad_59" data-name="Pfad 59" d="M148.2,16.438a4.862,4.862,0,0,1-.612-.387c-.618-.529-1.234-1.061-1.825-1.62a2.861,2.861,0,0,1-.588-3.147c.263-.887.6-1.754.94-2.614a1.307,1.307,0,0,0-.138-1.337,9.49,9.49,0,0,0-4.492-3.374c-.22-.088-.373-.345-.557-.523.257-.049.56-.213.764-.131a16.971,16.971,0,0,1,6.416,4.306c.772.857.517,1.925.381,2.92a8.332,8.332,0,0,1-.519,1.752,1.145,1.145,0,0,0,.4,1.429c.8.669,1.561,1.377,2.338,2.07a3.127,3.127,0,0,1,.287.289c1,1.167.812,2.225-.659,2.622a14.035,14.035,0,0,1-3.993.487c-2.345-.066-4.681-.444-7.026-.52-2.411-.078-4.83.048-7.245.084-.169,0-.337,0-.506,0l-.045-.213a15.407,15.407,0,0,1,2.22-.6c2.642-.322,5.289-.613,7.942-.834,1.958-.162,3.926-.193,5.889-.292a2.343,2.343,0,0,0,.481-.128Z" transform="translate(-113.603 -2.835)" fill="#8e8e8e"/>
    <path id="Pfad_60" data-name="Pfad 60" d="M473.346,275.653h5.667v-5.08h2.072v12.478h-2.036v-5.494h-5.642v5.473h-2.095V270.567h2.034Z" transform="translate(-407.1 -233.705)" fill="#8e8e8e"/>
    <path id="Pfad_61" data-name="Pfad 61" d="M576.479,270.476h2.07c0,.293,0,.555,0,.817,0,2.49-.009,4.98.013,7.47a2.419,2.419,0,0,0,2.579,2.589c2.317.1,3.142-1.029,3.191-3.137.053-2.308.013-4.618.013-6.927V270.5H586.3c.012.264.032.506.032.748,0,2.513-.046,5.026.01,7.538a4.183,4.183,0,0,1-4.017,4.338,6.348,6.348,0,0,1-3.332-.352,3.805,3.805,0,0,1-2.5-3.346c-.138-2.911-.082-5.831-.1-8.748,0-.041.033-.082.083-.2" transform="translate(-497.867 -233.626)" fill="#8e8e8e"/>
    <path id="Pfad_62" data-name="Pfad 62" d="M67.459,282.645c.341-.925.632-1.724.929-2.52,1.14-3.059,2.3-6.112,3.409-9.181.23-.635.5-.933,1.242-.891,1.37.078,1.373.023,1.862,1.332q1.984,5.31,3.967,10.621c.062.165.108.337.2.627-.71,0-1.353.024-1.99-.019-.133-.009-.3-.247-.364-.414-.305-.8-.589-1.6-.863-2.413a.735.735,0,0,0-.826-.6c-1.177.041-2.357.038-3.534,0a.72.72,0,0,0-.818.6c-.251.8-.562,1.572-.813,2.368a.59.59,0,0,1-.68.489c-.516-.026-1.035-.007-1.72-.007m7.578-5.281-1.748-5.122-1.745,5.122Z" transform="translate(-58.268 -233.258)" fill="#8e8e8e"/>
    <path id="Pfad_63" data-name="Pfad 63" d="M384.122,279.552c1.354.209,2.652.435,3.958.592a2.4,2.4,0,0,0,1.116-.2,1.473,1.473,0,0,0,.3-2.61,31.553,31.553,0,0,0-2.888-1.464,3.764,3.764,0,0,1-2.212-2.4,3.241,3.241,0,0,1,2.439-4.157,8.007,8.007,0,0,1,5.21.6,12.529,12.529,0,0,1-.549,1.4c-.06.115-.388.154-.578.125-.931-.142-1.851-.4-2.786-.46a1.514,1.514,0,0,0-1.718,1.29,1.5,1.5,0,0,0,.936,1.679c.917.48,1.877.876,2.806,1.335a3.36,3.36,0,0,1,1.782,4.59,3.41,3.41,0,0,1-3.062,2.041,8.9,8.9,0,0,1-4.152-.328.749.749,0,0,1-.609-.882c.037-.42.008-.846.008-1.146" transform="translate(-331.777 -232.44)" fill="#8e8e8e"/>
    <path id="Pfad_64" data-name="Pfad 64" d="M682.535,271.968h-3.7V282.66h-2.1V271.978H673.1v-1.8c.242-.011.483-.03.723-.03,2.652,0,5.3.02,7.956-.016.664-.009.909.191.815.84-.044.306-.038.62-.058,1" transform="translate(-581.396 -233.325)" fill="#8e8e8e"/>
    <path id="Pfad_65" data-name="Pfad 65" d="M7.3,283.128H0V270.645H2.019v10.679H7.3Z" transform="translate(0 -233.772)" fill="#8e8e8e"/>
    <path id="Pfad_66" data-name="Pfad 66" d="M536.553,168.405v8.16h-.661c-.016-.231-.04-.429-.041-.626,0-2.673-.006-5.345.008-8.018,0-.293-.194-.716.371-.782a.793.793,0,0,1,.971.58c.939,2.393,1.923,4.768,2.893,7.149.049.119.117.231.217.424.619-1.526,1.211-2.978,1.8-4.433.4-.982.83-1.952,1.165-2.956a.915.915,0,0,1,1.351-.686v9.341l-.608.033V168.33l-.125-.034q-.659,1.609-1.317,3.218c-.621,1.523-1.231,3.051-1.867,4.568a2.283,2.283,0,0,1-.435.518c-.157-.17-.38-.314-.462-.514-1.046-2.559-2.071-5.126-3.1-7.691l-.155.011" transform="translate(-462.826 -144.354)" fill="#8e8e8e"/>
    <path id="Pfad_67" data-name="Pfad 67" d="M138.615,7.307c-.2.171-.406.346-.614.512-.933.745-1.887,1.465-2.8,2.238a1.658,1.658,0,0,0-.457,2.057,26.394,26.394,0,0,1,.921,3.446,1.617,1.617,0,0,1-.736,1.71c-1.518,1.093-3.053,2.161-4.581,3.239l-.214-.182c.391-.537.751-1.1,1.179-1.6.584-.687,1.218-1.331,1.834-1.99a1.142,1.142,0,0,0,.157-1.32c-.287-.735-.553-1.479-.814-2.224a2.416,2.416,0,0,1,.62-2.559,15.6,15.6,0,0,1,5-3.434,1.707,1.707,0,0,1,.369-.081l.137.191" transform="translate(-112.407 -6.147)" fill="#8e8e8e"/>
    <path id="Pfad_68" data-name="Pfad 68" d="M454.375,7.334c-.5.372-1.006.728-1.487,1.119-.663.538-1.326,1.08-1.951,1.662a1.569,1.569,0,0,0-.339,1.761c.291.879.56,1.769.908,2.626a1.991,1.991,0,0,1-.788,2.6c-1.521,1.092-3.065,2.152-4.6,3.226l-.155-.119a4.068,4.068,0,0,1,.491-.691c.761-.707,1.566-1.367,2.318-2.084.987-.942,1.027-1.36.38-2.542a6.731,6.731,0,0,1-.462-.98,2.969,2.969,0,0,1,.447-3.291,15.689,15.689,0,0,1,5.078-3.5l.159.21" transform="translate(-385.206 -6.153)" fill="#8e8e8e"/>
    <path id="Pfad_69" data-name="Pfad 69" d="M292.106,176.811c-.279-.188-.647-.316-.822-.574-1.6-2.353-3.161-4.728-4.735-7.1a1.65,1.65,0,0,0-.511-.541c.03.423.085.846.087,1.269.006,2.107-.007,4.213,0,6.32,0,.48-.2.587-.653.448v-9.313c.5-.245.746.045.988.409q2.433,3.668,4.881,7.325c.084.125.181.241.286.381v-8.162l.642-.029v9.347l-.162.217" transform="translate(-246.578 -144.448)" fill="#8e8e8e"/>
    <path id="Pfad_70" data-name="Pfad 70" d="M132.727,171.249c-.746.521-1.448.938-1.323,2.021a24.879,24.879,0,0,1,.022,2.813c-.346.08-.691.226-.693-.306-.01-2.987-.005-5.975-.005-9.017l.671-.065v4.85c.429-.4.745-.659,1.028-.954,1.128-1.173,2.23-2.371,3.38-3.521a3.253,3.253,0,0,1,.969-.461l.148.251c-.878.9-1.751,1.8-2.637,2.69-1.072,1.078-1.088,1.081-.219,2.3.851,1.2,1.728,2.373,2.589,3.561.155.214.292.441.451.682a.885.885,0,0,1-1.141-.381c-.512-.771-1.1-1.493-1.644-2.242-.531-.727-1.05-1.462-1.6-2.226" transform="translate(-112.916 -143.911)" fill="#8e8e8e"/>
    <path id="Pfad_71" data-name="Pfad 71" d="M395.427,166.841c.492-.18.662,0,.659.453-.007,1.155,0,2.311,0,3.466,0,.215.023.43-.1.447,1.015-.887,2.041-1.762,3.04-2.667.519-.47.967-1.018,1.491-1.481a3.138,3.138,0,0,1,.832-.382l.162.237-3.689,3.838,3.913,5.372a.859.859,0,0,1-1.179-.364c-.93-1.332-1.9-2.635-2.862-3.947-.117-.161-.245-.314-.39-.5-.741.5-1.354.972-1.237,2,.089.783.009,1.584.023,2.377.007.454-.167.632-.661.472Z" transform="translate(-341.554 -143.971)" fill="#8e8e8e"/>
    <path id="Pfad_72" data-name="Pfad 72" d="M464.446,167.4c.516-.172.717-.043.714.435-.01,2.039.028,4.079-.017,6.117a3.051,3.051,0,0,1-2.478,2.85,3.6,3.6,0,0,1-4.127-1.4,2.962,2.962,0,0,1-.453-1.325c-.046-2.217-.021-4.434-.021-6.718l.727-.037c0,1.282,0,2.5,0,3.718,0,.929-.046,1.861.014,2.786a2.64,2.64,0,0,0,3.025,2.486,2.571,2.571,0,0,0,2.613-2.7c.018-1.744,0-3.489,0-5.234V167.4" transform="translate(-395.651 -144.526)" fill="#8e8e8e"/>
    <path id="Pfad_73" data-name="Pfad 73" d="M200.891,176.245v.715h-5.144v-9.375h.673v8.66Z" transform="translate(-169.078 -144.753)" fill="#8e8e8e"/>
    <rect id="Rechteck_41" data-name="Rechteck 41" width="0.647" height="9.38" transform="translate(34.415 22.829)" fill="#8e8e8e"/>
    <path id="Pfad_74" data-name="Pfad 74" d="M363.089,177.055c-.163.015-.272.035-.381.033a1.951,1.951,0,0,1-.287-.049v-9.35h.668Z" transform="translate(-313.044 -144.844)" fill="#8e8e8e"/>
  </g>
</svg>
