<svg id="Gruppe_31" data-name="Gruppe 31" xmlns="http://www.w3.org/2000/svg" xmlns:xlink="http://www.w3.org/1999/xlink" width="151.444" height="64.638" viewBox="0 0 151.444 64.638">
  <defs>
    <clipPath id="clip-path">
      <rect id="Rechteck_45" data-name="Rechteck 45" width="151.444" height="64.638" fill="#8e8e8e"/>
    </clipPath>
  </defs>
  <g id="Gruppe_30" data-name="Gruppe 30" clip-path="url(#clip-path)">
    <path id="Pfad_89" data-name="Pfad 89" d="M122.325,59.624a26.212,26.212,0,0,1-3.389,12.926c-.42.721-.871,1.425-1.282,2.152a.641.641,0,0,1-.958.316,6.42,6.42,0,0,0-8.71,7.414c.116.5-.085.7-.48.858a32.24,32.24,0,0,1-8.191,2.245A25.985,25.985,0,0,1,71.9,68.318a.7.7,0,0,1,.212-.833,10.531,10.531,0,0,0,.062-15.056.841.841,0,0,1-.216-1,25.262,25.262,0,0,1,8.172-11.585,24.924,24.924,0,0,1,6.567-3.8,26.569,26.569,0,0,1,9.941-1.9c.693,0,1.387.062,2.081.108s.78.147,1.008.84a8.446,8.446,0,0,0,6.238,5.891,8,8,0,0,0,6.165-.944.679.679,0,0,1,.917.1A25.24,25.24,0,0,1,121.9,55.639c.253,1.485.322,3,.423,3.985m-41.314.192A15.366,15.366,0,1,0,96.294,44.591,15.534,15.534,0,0,0,81.011,59.815" transform="translate(-44.545 -21.167)" fill="#8e8e8e"/>
    <path id="Pfad_90" data-name="Pfad 90" d="M8.145,75.717a8.1,8.1,0,0,1-.179-16.19,8.1,8.1,0,1,1,.179,16.19" transform="translate(0 -36.906)" fill="#8e8e8e"/>
    <path id="Pfad_91" data-name="Pfad 91" d="M200.482,6.508a6.389,6.389,0,0,1-6.362,6.48A6.638,6.638,0,0,1,187.5,6.95,6.639,6.639,0,0,1,193.948,0a6.4,6.4,0,0,1,6.535,6.507" transform="translate(-116.245 0)" fill="#8e8e8e"/>
    <path id="Pfad_92" data-name="Pfad 92" d="M180.274,149.321a4.894,4.894,0,1,1-4.92-4.869,4.835,4.835,0,0,1,4.92,4.869" transform="translate(-105.701 -89.56)" fill="#8e8e8e"/>
    <path id="Pfad_93" data-name="Pfad 93" d="M348.474,81.24q-.53,1.1-1.058,2.2c-.15.312-.3.624-.441.941a.724.724,0,0,1-.734.481.7.7,0,0,1-.686-.475q-.636-1.371-1.285-2.736a4.465,4.465,0,0,0-.251-.412l-.114.034c-.007.165-.021.329-.021.494,0,1.291,0,2.582,0,3.873,0,.646-.06.7-.648.707s-.669-.068-.67-.691q0-3.449,0-6.9c0-.268-.088-.637.314-.683s.885-.17,1.138.323c.266.518.506,1.05.751,1.579.4.858.782,1.721,1.189,2.573a1.979,1.979,0,0,0,.353.4,2.711,2.711,0,0,0,.314-.435c.63-1.374,1.244-2.755,1.875-4.129.16-.348.6-.455,1.125-.33.372.088.326.382.326.641q0,3.519,0,7.038c0,.544-.078.605-.651.608s-.659-.072-.662-.6c-.009-1.322-.008-2.645-.011-3.968,0-.168,0-.335,0-.5l-.152-.033" transform="translate(-212.387 -48.365)" fill="#8e8e8e"/>
    <path id="Pfad_94" data-name="Pfad 94" d="M271.392,80.879a6.333,6.333,0,0,0-.074.649c-.006,1.416,0,2.832-.006,4.248,0,.587-.053.635-.61.636-.632,0-.7-.052-.7-.656,0-2.313-.007-4.627.009-6.939,0-.224.127-.634.214-.639a2.664,2.664,0,0,1,1.065.162c.173.066.278.329.4.512q1.5,2.291,3,4.585a3.179,3.179,0,0,0,.294.322,2.073,2.073,0,0,0,.086-.382c-.011-1.541-.032-3.083-.042-4.624,0-.581.078-.651.659-.646s.653.07.654.657c0,2.313.008,4.627-.012,6.94,0,.228-.126.613-.268.651-.374.1-.828.2-1.122-.222q-.487-.7-.948-1.411c-.787-1.216-1.566-2.436-2.352-3.652-.037-.057-.113-.089-.248-.191" transform="translate(-167.401 -48.426)" fill="#8e8e8e"/>
    <path id="Pfad_95" data-name="Pfad 95" d="M233.3,113.622q0,2.213,0,4.427c0,.063,0,.126.006.189.016.785-.323,1.048-1.07.789a.559.559,0,0,1-.233-.435c-.023-.881-.015-1.762-.015-2.644,0-1.495-.008-2.99.011-4.485,0-.219.073-.548.222-.631a1.084,1.084,0,0,1,1.2.257c.393.571.784,1.143,1.163,1.723.723,1.107,1.436,2.221,2.156,3.33a2.7,2.7,0,0,0,.239.254c.019-.32.041-.527.041-.733,0-1.463.012-2.927,0-4.39,0-.372.132-.492.5-.49.784,0,.785-.012.785.753,0,2.3.006,4.6-.009,6.893,0,.214-.111.592-.217.61-.393.065-.858.255-1.167-.208-.69-1.035-1.374-2.074-2.063-3.11-.476-.715-.957-1.427-1.436-2.141l-.105.042" transform="translate(-143.83 -68.662)" fill="#8e8e8e"/>
    <path id="Pfad_96" data-name="Pfad 96" d="M364.916,114.929c0-1.18.013-2.359-.007-3.539-.006-.4.112-.562.537-.548.788.026,1.577,0,2.366,0a2.725,2.725,0,0,1,3.044,2.622,14.16,14.16,0,0,1-.04,3.194,2.655,2.655,0,0,1-2.848,2.458c-.852.014-1.7,0-2.556.021-.4.011-.526-.151-.521-.529.013-1.227,0-2.453,0-3.68h.02m1.391.009h.032q0,1.25,0,2.5c0,.265.067.481.383.478a12.547,12.547,0,0,0,1.461-.048,1.331,1.331,0,0,0,1.263-1.264,21.684,21.684,0,0,0-.006-3.19,1.419,1.419,0,0,0-1.416-1.34c-.437-.048-.881-.023-1.322-.027-.3,0-.409.134-.4.441.019.816.006,1.633.006,2.45" transform="translate(-226.231 -68.722)" fill="#8e8e8e"/>
    <path id="Pfad_97" data-name="Pfad 97" d="M259.1,113.175a8.855,8.855,0,0,1-1.157-.017c-.138-.019-.288-.209-.365-.356a1.6,1.6,0,0,0-1.355-.965,1.466,1.466,0,0,0-1.723,1.247,7.781,7.781,0,0,0,0,3.464,1.5,1.5,0,0,0,1.9,1.23,1.7,1.7,0,0,0,1.36-1.876.571.571,0,0,0-.394-.339,4.167,4.167,0,0,0-.944-.017c-.413.023-.457-.223-.453-.543,0-.3,0-.564.435-.551.741.022,1.484.017,2.226,0,.337-.006.444.143.435.455-.013.409,0,.819,0,1.228a2.853,2.853,0,0,1-2.566,2.894c-1.883.153-3.17-.713-3.408-2.42a10.532,10.532,0,0,1,.066-3.943,2.9,2.9,0,0,1,3.146-2.1,2.943,2.943,0,0,1,2.795,2.6" transform="translate(-156.819 -68.55)" fill="#8e8e8e"/>
    <path id="Pfad_98" data-name="Pfad 98" d="M279.456,114.772c-.045.57-.079,1.119-.133,1.666a2.833,2.833,0,0,1-2.244,2.538,2.9,2.9,0,0,1-3.693-2.92c.049-.878-.019-1.762.021-2.641a3.61,3.61,0,0,1,.274-1.227,2.961,2.961,0,0,1,3.141-1.606,2.874,2.874,0,0,1,2.5,2.516c.057.563.09,1.127.133,1.673m-4.693.009h0c0,.5-.025,1.008.006,1.509a1.583,1.583,0,0,0,1.545,1.546,1.55,1.55,0,0,0,1.634-1.5c.05-1.035.042-2.076-.01-3.111a1.525,1.525,0,0,0-1.6-1.42,1.555,1.555,0,0,0-1.568,1.465c-.035.5-.006,1.006-.006,1.509" transform="translate(-169.495 -68.538)" fill="#8e8e8e"/>
    <path id="Pfad_99" data-name="Pfad 99" d="M229.7,86.247c-1.039.286-1.362.16-1.822-.656q-.755-1.338-1.511-2.674c-.285-.5-.371-.464-.784-.1a3.161,3.161,0,0,0-1.032,2.885c.057.586-.065.636-.638.65-.494.012-.568-.258-.567-.659q.01-3.519,0-7.037c0-.434.133-.643.6-.622.54.024.619.08.622.641,0,.929,0,1.858,0,2.787,0,.179.031.358.055.625a1.883,1.883,0,0,0,.321-.231q1.354-1.671,2.7-3.348a1.405,1.405,0,0,1,1.49-.439c.35.123.147.312.024.464-.566.7-1.134,1.393-1.711,2.082-.59.7-.586.714-.106,1.513.714,1.188,1.414,2.385,2.114,3.581.093.158.155.334.247.539" transform="translate(-138.473 -48.362)" fill="#8e8e8e"/>
    <path id="Pfad_100" data-name="Pfad 100" d="M302.843,82.076c.161-.183.329-.361.483-.551.785-.965,1.594-1.912,2.336-2.909a1.426,1.426,0,0,1,1.514-.5c.369.048.265.279.1.472-.519.614-1.043,1.222-1.564,1.833-.78.914-.774.912-.175,1.927.68,1.152,1.358,2.305,2.021,3.467.27.473.2.53-.338.588a1.124,1.124,0,0,1-1.215-.683c-.534-.981-1.1-1.944-1.641-2.922-.184-.333-.361-.359-.6-.065a10.134,10.134,0,0,0-.825,1.031,2.293,2.293,0,0,0-.28.918,11.932,11.932,0,0,0-.014,1.273c0,.474-.348.437-.668.451-.336.015-.547-.087-.546-.47q.006-3.681,0-7.361c0-.412.212-.5.57-.493s.659.053.654.527c-.011.975,0,1.951,0,2.926,0,.164.022.328.033.491l.154.052" transform="translate(-186.886 -48.409)" fill="#8e8e8e"/>
    <path id="Pfad_101" data-name="Pfad 101" d="M350.427,119.044a7.592,7.592,0,0,1-1.043.054.8.8,0,0,1-.424-.284,1.009,1.009,0,0,1-.137-.348c-.405-1.1-.119-1-1.447-1-.489,0-.979.016-1.468,0a.693.693,0,0,0-.783.53c-.028.09-.063.178-.093.268-.28.856-.28.856-1.164.863-.5,0-.576-.087-.405-.548q.947-2.568,1.9-5.132c.291-.781.567-1.569.9-2.334a.691.691,0,0,1,.524-.325c.294,0,.663-.115.825.34.908,2.547,1.837,5.087,2.758,7.631a2.427,2.427,0,0,1,.058.289m-3.432-5.915-.142-.017c-.347.952-.7,1.9-1.026,2.861-.023.068.156.291.248.3.549.029,1.1.014,1.651.013.267,0,.328-.145.249-.372q-.488-1.391-.98-2.781" transform="translate(-212.895 -68.676)" fill="#8e8e8e"/>
    <path id="Pfad_102" data-name="Pfad 102" d="M313.139,119.034a3.691,3.691,0,0,1-2.524-.769c-.321-.248-.359-.469-.044-.765.341-.32.606-.483,1.08-.134a2.527,2.527,0,0,0,2.524.265,1.007,1.007,0,0,0,.716-1.095,1.045,1.045,0,0,0-.9-1.008c-.54-.112-1.09-.173-1.629-.288a2.011,2.011,0,0,1-1.79-2.109,2.186,2.186,0,0,1,1.373-2.269,3.825,3.825,0,0,1,3.621.3c.151.089.328.4.277.52-.22.5-.654.691-.967.494a2.547,2.547,0,0,0-2.084-.336,1.1,1.1,0,0,0-.886,1.08,1.051,1.051,0,0,0,.9,1.058c.581.145,1.175.232,1.758.371a2.1,2.1,0,0,1,1.7,1.963,2.2,2.2,0,0,1-1.245,2.335,13.568,13.568,0,0,1-1.847.5c-.01-.038-.019-.076-.027-.115" transform="translate(-192.418 -68.534)" fill="#8e8e8e"/>
    <path id="Pfad_103" data-name="Pfad 103" d="M321.585,81.261c0-.866.011-1.732,0-2.6-.008-.43.174-.582.6-.58s.646.123.64.591c-.016,1.417-.011,2.834,0,4.251a5.786,5.786,0,0,0,.083,1.032,1.678,1.678,0,0,0,3.328-.287c.016-1.653,0-3.306.017-4.959,0-.193.1-.524.217-.55a2.262,2.262,0,0,1,.92.028c.076.015.152.263.152.4.01,1.637.033,3.275,0,4.912a2.906,2.906,0,0,1-1.926,2.767,3.112,3.112,0,0,1-3.46-.986,3.686,3.686,0,0,1-.536-1.573,22.664,22.664,0,0,1-.023-2.454Z" transform="translate(-199.368 -48.412)" fill="#8e8e8e"/>
    <path id="Pfad_104" data-name="Pfad 104" d="M332.372,115.653c0,1.007-.009,2.013.005,3.02,0,.325-.058.48-.438.478-.949,0-.983.211-.967-.936.027-1.871.006-3.743.023-5.614,0-.4-.13-.58-.549-.556-.44.025-.884-.008-1.325.015-.341.017-.459-.13-.432-.446a1.229,1.229,0,0,1,.03-.419c.068-.133.217-.32.332-.321q2.65-.036,5.3-.013a.389.389,0,0,1,.277.259c.022.993.133.989-.849.948-1.409-.058-1.409-.065-1.409,1.321q0,1.133,0,2.265" transform="translate(-203.785 -68.729)" fill="#8e8e8e"/>
    <path id="Pfad_105" data-name="Pfad 105" d="M386.755,115.54c0,1.022-.014,2.044.008,3.066.008.378-.1.568-.5.542a1.855,1.855,0,0,0-.331.011c-.388.043-.526-.121-.524-.512.014-1.9.006-3.805.006-5.708,0-.141-.009-.283,0-.424.022-.324-.143-.467-.45-.465-.457,0-.915,0-1.372.022-.312.012-.451-.092-.459-.429-.019-.828-.034-.822.779-.817,1.5.008,3,.02,4.5.005.429,0,.583.136.573.572-.009.4-.05.673-.556.63-.407-.034-.82,0-1.23-.01-.352-.008-.5.116-.494.5.026,1.005.009,2.011.009,3.017h.042" transform="translate(-237.54 -68.711)" fill="#8e8e8e"/>
    <path id="Pfad_106" data-name="Pfad 106" d="M243.8,82.256c0-1.165,0-2.329,0-3.494,0-.575.072-.64.615-.644.621,0,.7.062.7.658,0,1.936,0,3.872,0,5.808,0,.684.037.717.728.72.868,0,1.737.008,2.605-.006.414-.007.657.1.653.578,0,.458-.236.55-.629.546-1.342-.012-2.684,0-4.027-.008-.579,0-.646-.071-.649-.665,0-1.165,0-2.329,0-3.494" transform="translate(-151.155 -48.433)" fill="#8e8e8e"/>
    <path id="Pfad_107" data-name="Pfad 107" d="M293.838,115c0-1.165,0-2.33,0-3.5,0-.637.011-.637.671-.641h.048c.657,0,.659,0,.66.636q0,2.905,0,5.81c0,.617.016.633.641.634.948,0,1.9.017,2.843-.012.458-.014.508.21.507.58s-.019.63-.513.625c-1.484-.016-2.969,0-4.454.018-.364,0-.413-.182-.412-.472.006-1.228,0-2.456,0-3.685h.005" transform="translate(-182.174 -68.736)" fill="#8e8e8e"/>
    <path id="Pfad_108" data-name="Pfad 108" d="M224.534,114.977c0,1.225-.025,2.451.01,3.675.019.659-.44.461-.77.508-.38.055-.54-.109-.537-.5q.023-3.7.016-7.4c0-.385.148-.478.508-.466.771.025.771.009.771.79v3.393Z" transform="translate(-138.406 -68.692)" fill="#8e8e8e"/>
    <path id="Pfad_109" data-name="Pfad 109" d="M262.473,82.3c0,1.178-.009,2.356.005,3.534,0,.412-.124.61-.57.591-.562-.024-.652-.074-.653-.61,0-2.372,0-4.744-.007-7.115,0-.43.169-.582.594-.575s.644.125.637.594c-.019,1.194-.006,2.388-.006,3.581" transform="translate(-161.974 -48.438)" fill="#8e8e8e"/>
    <path id="Pfad_110" data-name="Pfad 110" d="M293.606,82.313c0,1.165-.009,2.331,0,3.5.005.432-.139.626-.6.623-.437,0-.638-.141-.636-.6q.015-3.566,0-7.133c0-.478.236-.574.654-.572s.592.168.587.593c-.015,1.2-.005,2.393-.006,3.59" transform="translate(-181.269 -48.44)" fill="#8e8e8e"/>
  </g>
</svg>
