<svg xmlns="http://www.w3.org/2000/svg" xmlns:xlink="http://www.w3.org/1999/xlink" width="129.49" height="70.537" viewBox="0 0 129.49 70.537">
  <defs>
    <clipPath id="clip-path">
      <rect id="Rechteck_48" data-name="Rechteck 48" width="129.49" height="70.537" transform="translate(0 0)" fill="#8e8e8e"/>
    </clipPath>
  </defs>
  <g id="Gruppe_37" data-name="Gruppe 37" transform="translate(0 -0.004)">
    <g id="Gruppe_36" data-name="Gruppe 36" transform="translate(0 0.004)" clip-path="url(#clip-path)">
      <path id="Pfad_1185" data-name="Pfad 1185" d="M2238.143,1161.28l.046-.013v.329c-.214.076-.426.157-.642.225a.405.405,0,0,0-.322.414c-.022.693-.071,1.385-.078,2.079-.012,1.251,0,2.5,0,3.754h-.384c-.31-.462-.6-.936-.932-1.383-.777-1.055-1.574-2.1-2.357-3.145a8.141,8.141,0,0,0-.668-.857c0,.231,0,.463,0,.694,0,.767,0,1.535.008,2.3.006.451.021.9.063,1.35a.494.494,0,0,0,.22.323,5.177,5.177,0,0,0,.579.232.343.343,0,0,1,.177.232h-2.7c.068-.094.115-.167.171-.233.013-.016.053-.008.078-.018.842-.327.812-.327.813-1.257s.075-1.887.109-2.831c.013-.365-.009-.732.011-1.1.023-.426-.273-.55-.583-.679-.167-.069-.329-.148-.493-.222.008-.04.017-.081.026-.121.24,0,.48,0,.72,0,.338,0,.676.009,1.014.009a.306.306,0,0,1,.356.243,2.163,2.163,0,0,0,.37.573q1.367,1.843,2.74,3.681l.064.138.071-.019-.028-.221c-.016-1.175,0-2.352-.069-3.524-.02-.346-.436-.469-.752-.592a2.3,2.3,0,0,1-.291-.162l.032-.117h2.5l.125-.088" transform="translate(-2108.699 -1097.531)" fill="#8e8e8e"/>
      <path id="Pfad_1186" data-name="Pfad 1186" d="M420.547,1169.641c-.008-.047,0-.106-.025-.14q-1.877-2.546-3.76-5.087c-.032-.043-.073-.08-.179-.2,0,.373,0,.666,0,.958,0,.932.006,1.864.017,2.8a3.889,3.889,0,0,0,.062.7.422.422,0,0,0,.207.25c.184.095.391.144.582.228a1.136,1.136,0,0,1,.22.17l-.043.068h-2.641l-.045-.068a1.765,1.765,0,0,1,.311-.222c.76-.329.753-.326.76-1.164.01-1.23.038-2.46.051-3.69.008-.74-.015-.761-.7-1.028a3.033,3.033,0,0,1-.32-.17l.017-.081c.165-.011.331-.031.5-.032.393,0,.787-.01,1.178.017a.526.526,0,0,1,.343.189c1.108,1.485,2.2,2.977,3.3,4.468l.023.035.012-.039c-.024-1.221-.058-2.442-.067-3.663a.609.609,0,0,0-.455-.6c-.21-.088-.419-.181-.628-.271l.027-.1h2.652l.052.073a1.13,1.13,0,0,1-.325.21c-.537.118-.707.44-.709.979-.007,1.8-.058,3.605-.093,5.408Z" transform="translate(-392.168 -1099.104)" fill="#8e8e8e"/>
      <path id="Pfad_1187" data-name="Pfad 1187" d="M118.847,7.471a3.08,3.08,0,0,1,1.463,2.345c.166.751.239,1.524.343,2.288a5.827,5.827,0,0,1-.431,2.345,2.906,2.906,0,0,0-.052.481l.434.438a2.8,2.8,0,0,1,.9,1.46c.029.175.113.339.158.512a.493.493,0,0,1-.013.2c-.016.087-.071.179-.057.259a5.5,5.5,0,0,1-.026,1.293c-.006.114-.135.218-.193.333-.082.161-.15.329-.225.494l-.062.1-.174.224-.2.227-.11.11-.23.2a1.957,1.957,0,0,1-1.635.408,3.648,3.648,0,0,1-1.049-.313c-.458-.162-.628-.227-.949.405a4.475,4.475,0,0,1-.256.4l.367.285.791.423.218.116c.282.149.574.283.844.45.239.148.455.334.681.5l.052.04a1.213,1.213,0,0,0,.115.116,1.587,1.587,0,0,1,.413,1.992c-.123.349-.291.681-.443,1.019-.2.434-.405.861-.589,1.3s-.328.863-.5,1.293c-.107.271-.233.535-.332.809a.229.229,0,0,0,.081.207c.242.123.5.222.745.33l.24.128c.281.106.567.2.842.322.222.1.422.243.644.342a5.146,5.146,0,0,0,1.088.363c.064.077.112.185.194.225q1.418.7,2.845,1.372c.325.155.67.27.983.445.262.146.484.361.734.53a7.673,7.673,0,0,1,.657.409,5.832,5.832,0,0,1,.579.624c.13.147.253.3.379.453l.11.165.51.986.078.173.1.266.063.218.252,1.592.012.164v.859H0c0-.342-.005-.685.006-1.027,0-.042.086-.1.141-.116a.985.985,0,0,1,.246-.006q6.775,0,13.551,0l32.724.01,27.623.007q5.527,0,11.054.007h.322c.068-.475.111-.934.2-1.383a4.829,4.829,0,0,1,1.177-2.233,7.576,7.576,0,0,1,2.351-1.8c1.474-.722,2.967-1.407,4.45-2.109.994-.471,1.985-.95,2.981-1.416.279-.13.36-.27.189-.565-.571-.987-1.123-1.984-1.671-2.983A3.248,3.248,0,0,1,95,25.789a1.1,1.1,0,0,1,.308-1.064c.658-.629,1.341-1.232,2.023-1.835.239-.211.5-.4.76-.586a.256.256,0,0,0,.077-.409c-.5-.786-.489-.783-1.28-.332a3.453,3.453,0,0,1-1.8.553,2.361,2.361,0,0,1-2.2-1.813,4.854,4.854,0,0,1,.541-3.4.6.6,0,0,0,.021-.61,4.251,4.251,0,0,1-.525-2.02,1.548,1.548,0,0,1,.306-.953,2.008,2.008,0,0,0,.357-2.036c-.116-.555-.135-1.129-.2-1.694A1.283,1.283,0,0,1,94,8.354a1.2,1.2,0,0,0,.53-.994A2.913,2.913,0,0,1,95.938,4.9c.443-.3.928-.548,1.38-.84a.6.6,0,0,0,.244-.346A3.015,3.015,0,0,1,99.1,1.425,7.689,7.689,0,0,1,102.4.4a3.46,3.46,0,0,1,1.93.5.536.536,0,0,0,.421.03A12.247,12.247,0,0,1,108.23.126c.435-.05.873-.077,1.31-.112a2.415,2.415,0,0,1,2.213,1.016c.134.173.245.434.417.485s.4-.122.6-.194a1.218,1.218,0,0,1,1.487.419c.221.347.357.539.87.391a2.276,2.276,0,0,1,2.1.581,4.681,4.681,0,0,1,1.7,2.791,4.274,4.274,0,0,1-.121,1.805l.045.164M105.735,26.015l-.114-.057c-.231-.207-.212-.368.061-.5a2.426,2.426,0,0,1,1.628-.041c.4.089.805.274,1.205-.01.209-.148.4-.294.406-.592s-.225-.341-.408-.459c-.3-.194-.58-.074-.873.005s-.672.284-.917.189a1.491,1.491,0,0,0-1.251.086.537.537,0,0,1-.57-.094c-.161-.111-.315-.231-.47-.345-.137.087-.258.178-.392.244-.177.088-.377.035-.361-.158a1.157,1.157,0,0,1,.272-.607c.063-.075.307-.064.434-.01.5.214.617.211,1.01-.143a.573.573,0,0,1,.832-.014,4.02,4.02,0,0,0,.473.4.6.6,0,0,0,.4.038c.082-.017.14-.137.216-.2.51-.436.672-.5,1.218-.125a.8.8,0,0,0,.977.075.679.679,0,0,1,.464-.111c.36.087.319.432.379.708a.741.741,0,0,0,.144.379.79.79,0,0,0,.907-.135c.133-.168.275-.332.4-.508a6.4,6.4,0,0,0,1.556-3.926,11.6,11.6,0,0,1,.385-2.46,1.161,1.161,0,0,0-.506-1.149,5.291,5.291,0,0,0-.194.517,4.028,4.028,0,0,1-.209.872,2.4,2.4,0,0,1-1.292.9c-.232.106-.332-.042-.407-.156a.446.446,0,0,1,0-.383c.112-.212.151-.363-.119-.463-.05-.019-.088-.072-.2-.167a5.053,5.053,0,0,1,.828-.243,1.426,1.426,0,0,0,.918-1.031.565.565,0,0,0-.341-.4c-.231-.07-.161.167-.169.3a1.027,1.027,0,0,1-1.2.894.9.9,0,0,1-.778-.918.994.994,0,0,0-.127-.287,2.542,2.542,0,0,0-.588.425c-.156.2.093.321.215.451.154.165.31.328.5.527-.177.1-.29.213-.4.214-.416,0-.315.271-.287.506.064.524.157,1.047.188,1.573a1.249,1.249,0,0,0,.309.8c.323.372.475.8.052,1.211a4.9,4.9,0,0,0-.661.681.662.662,0,0,1-.744.273,2.413,2.413,0,0,0-1,0c-.462.146-.556.168-.825-.249-.241-.373-.334-.423-.733-.269-.613.237-.826.086-1.218-.426a.414.414,0,0,1,.044-.619c.26-.159.37.034.486.212.009.013.032.017.082.042.124-.112.256-.234.391-.352.319-.279.56-.285.732,0a1.6,1.6,0,0,1,.183.494.586.586,0,0,0,.7.542.82.82,0,0,0,.6-1.049,4.534,4.534,0,0,1-.092-1.846,3.585,3.585,0,0,0,.048-1c-.083-.6-.266-1.18-.346-1.777a1.876,1.876,0,0,1,.439-1.71c1.005-.914,2.831-1.675,4.27-.7.2.133.318.059.4-.142a1.361,1.361,0,0,0-.068-1.287c-.211-.352-.425-.7-.645-1.048a1.9,1.9,0,0,1-.288-1.564,4.16,4.16,0,0,0,.073-.432,2.14,2.14,0,0,0-1.175-2.4,1.755,1.755,0,0,0-.788-.138c-.5.007-1.007.065-1.51.1a5.944,5.944,0,0,1-1.98-.454,4.306,4.306,0,0,0-1.005-.189c-.456-.01-.914.059-1.371.095l-1.528.265a3.471,3.471,0,0,1-.392.24A2.915,2.915,0,0,0,100.652,8.3a4.608,4.608,0,0,0-.5,2.426,3.515,3.515,0,0,1-.417,1.642,6.1,6.1,0,0,0-.5,1.469,10.414,10.414,0,0,0-.021,1.641q.023.8.046,1.591c0,.338,0,.676.012,1.013a.806.806,0,0,1-.414.76.879.879,0,0,0-.385.39,2.286,2.286,0,0,0,.151,1.695.481.481,0,0,0,.852.076,1.8,1.8,0,0,1,.2-.248.279.279,0,0,1,.219-.049c.042.012.079.114.082.178a5.969,5.969,0,0,0,.009.711,10.211,10.211,0,0,0,.948,2.93.364.364,0,0,1,.045.236c-.21.695-.45,1.381-.644,2.079a2.666,2.666,0,0,0,.169,2.05,10.654,10.654,0,0,0,2.586,3.426c.46.378.969.7,1.455,1.044a.532.532,0,0,0,.714-.051,9.226,9.226,0,0,0,1.138-1.094,14.435,14.435,0,0,0,1.039-1.578c.145-.239.013-.369-.251-.409-.527-.078-1.06-.144-1.577-.267a5.51,5.51,0,0,1-2.332-1.4,7.906,7.906,0,0,1-1.937-2.813,2.857,2.857,0,0,1-.109-.378l.088-.052c.305.259.607.522.917.776.7.576,1.384,1.172,2.112,1.709a2.6,2.6,0,0,0,1.083.479,9.924,9.924,0,0,0,1.559.02,1.728,1.728,0,0,0,1.51-.526c.442-.555.454-1.433-.425-1.638-.295-.069-.6-.089-.9-.131l-1.327.057,0,0-.115-.059Zm5.05,9.045-.169.075c-.152.315.036.545.222.746.542.587.846.689,1.467.206a7.8,7.8,0,0,0,1.6-1.856,4.51,4.51,0,0,0,.873-2.615.9.9,0,0,0-.1-.279c-.081.075-.207.136-.235.227a6.162,6.162,0,0,1-1.434,2.181,7.918,7.918,0,0,1-.992.818l-.139.06h0l-.333.163h0l-.5.167,0,0-.276.111h0m4-6.34c-.144-.862-.287-1.724-.436-2.584a.91.91,0,0,0-.11-.227c-.078.065-.183.115-.228.2-.157.288-.272.6-.44.88a6.133,6.133,0,0,1-1.493,1.558,10.627,10.627,0,0,1-2.229,1.277,7.244,7.244,0,0,1-1.514.452c-.3.068-.333.235-.231.442a6.642,6.642,0,0,0,1.379,2.243c.351.309.709.587,1.242.367a6.23,6.23,0,0,0,3.39-2.849,4.222,4.222,0,0,0,.669-1.757M100.523,3.7a11.984,11.984,0,0,1,1.227-.062c.151.006.3.164.436.273.027.022,0,.155-.042.207a2.015,2.015,0,0,1-1.14.768,5,5,0,0,0-1.825,1.07,6.4,6.4,0,0,0-1.13,1.1,6.866,6.866,0,0,0-.742,1.207c-.11.214.218.565.444.516a.955.955,0,0,0,.7-.79,4.842,4.842,0,0,1,.2-.86.893.893,0,0,1,.929-.645c.229,0,.458.008.685-.008a.318.318,0,0,0,.2-.123c.293-.4.545-.837.871-1.209a1.973,1.973,0,0,1,2.053-.615,6.084,6.084,0,0,1,1.83.836c.172.1.391.174.5-.044.038-.078-.1-.294-.213-.385-.223-.185-.5-.309-.719-.5a.461.461,0,0,1-.161-.381.479.479,0,0,1,.37-.2,1.617,1.617,0,0,1,.609.092,2.8,2.8,0,0,1,2.026,1.618c.035.1.2.258.24.24.124-.049.3-.17.307-.272a2.681,2.681,0,0,0-.051-1.115,2.2,2.2,0,0,0-2.042-.984,2.662,2.662,0,0,1-1.538.019c-.367-.154-.721-.34-1.073-.527a1.849,1.849,0,0,0-1.526-.266,4.189,4.189,0,0,0-.979.412c-.183.123-.5.232-.443.618M117.94,17.947a2.435,2.435,0,0,0,.523-.005c1.16-.262,1.607-.6.969-1.714,0-.008-.01-.015-.015-.023-.185-.281-.356-.306-.591-.069-.112.113-.192.258-.3.377a1.29,1.29,0,0,1-1.58.276,1.4,1.4,0,0,1-.819-1.6,1.478,1.478,0,0,1,.993-1.075c.319-.12.382-.264.185-.538a2.09,2.09,0,0,0-.606-.563.731.731,0,0,0-.928.2,3.494,3.494,0,0,0-.375.7,2.291,2.291,0,0,0-.248,1.065,4.937,4.937,0,0,0,.615,1.5,2.939,2.939,0,0,0,2.177,1.464M115.453,7.406a2.159,2.159,0,0,0-.061-.621,2.064,2.064,0,0,0-1.926-.955c-.476.1-.95.216-1.425.324a.272.272,0,0,1-.376-.266,1.14,1.14,0,0,1,.038-.373,4.486,4.486,0,0,1,1.474-2.094,1.376,1.376,0,0,0,.162-.236,2.516,2.516,0,0,0-.327-.088.454.454,0,0,0-.178.049,2.882,2.882,0,0,0-1.8,1.136c-.372.62-.434,1.147-.046,1.572a2.547,2.547,0,0,1,.618,1.154.785.785,0,0,0,.987.546,3.314,3.314,0,0,0,.734-.337,1.565,1.565,0,0,1,1.931.078c.035.026.076.044.193.111M100.648,30.53l-.07.046a1.114,1.114,0,0,0,.031.309c.338.843.645,1.7,1.041,2.518a5.06,5.06,0,0,0,2.831,2.565,1.308,1.308,0,0,0,.476.08.341.341,0,0,0,.345-.464,2.629,2.629,0,0,0-.18-.474,2.884,2.884,0,0,0-1.209-1.336,6.874,6.874,0,0,1-1.552-1.211c-.506-.513-.91-1.125-1.366-1.689a4.191,4.191,0,0,0-.347-.343m6.865,5.082c-.318-.075-.641-.135-.95-.235a.347.347,0,0,1-.195-.269.929.929,0,0,1,1.026-.625.445.445,0,0,0,.315-.063,2.105,2.105,0,0,0,.458-2.1.215.215,0,0,0-.069-.084c-.069-.049-.148-.133-.212-.125a.253.253,0,0,0-.161.178,2.528,2.528,0,0,0-.033.739.578.578,0,0,1-.7.72c-.191-.05-.379-.113-.571-.157a.549.549,0,0,0-.723.452,2.522,2.522,0,0,0,.9,2.215.784.784,0,0,0,.557.208,4.86,4.86,0,0,0,2.01-.738c.493-.362.622-.588.312-1.03-.06-.086-.074-.208-.142-.285-.095-.107-.226-.267-.331-.259a.651.651,0,0,0-.4.254,1.81,1.81,0,0,0-.217.51c-.212.609-.239.632-.867.693m-5.917.976c.143-.066.28-.092.288-.14a.446.446,0,0,0-.073-.295c-.794-1.184-1.6-2.363-2.394-3.545-.333-.493-.657-.994-1-1.479-.056-.079-.2-.1-.3-.144-.012.117-.074.261-.028.348.352.661.7,1.329,1.1,1.961.618.978,1.27,1.936,1.926,2.889a2.3,2.3,0,0,0,.486.405M113.883,8.058l-.071.084c.141.165.286.326.421.5.366.459.739.914,1.088,1.386.227.306.406.647.63.956a1.143,1.143,0,0,0,.373.311c.254.139.349.075.337-.216a3.541,3.541,0,0,0-.98-2.34,2.754,2.754,0,0,0-1.8-.677m-19.5,10.679c-.006,1.006.608,1.407,1.359,1.011a3.784,3.784,0,0,0,1.252-1.4.146.146,0,0,0-.032-.14c-.155-.1-.3-.281-.5-.045a1.683,1.683,0,0,1-.419.387c-.172.1-.411.228-.566.177s-.267-.3-.379-.473c-.045-.07-.023-.182-.064-.257s-.125-.2-.189-.2a.324.324,0,0,0-.256.155c-.1.3-.166.622-.208.787m18.169-3.16c.182-.372.11-.681-.2-.842a2.813,2.813,0,0,0-1.113-.37c-.3-.013-.76-.072-.882.428-.014.058-.125.1-.2.134a1.5,1.5,0,0,0-.386.186c-.08.078-.088.23-.127.35.07.023.153.082.208.063a2.057,2.057,0,0,1,1.848-.051l.058-.527.792.628m-3.7,4.963-.122,1.238a.558.558,0,0,0,.57-.408c.1-.389-.019-.6-.448-.829m2.532-4.506c-.193-.126-.308-.256-.428-.261-.088,0-.275.2-.259.234a.788.788,0,0,0,.314.336c.046.023.192-.154.374-.309" transform="translate(0 -0.004)" fill="#8e8e8e"/>
      <path id="Pfad_1188" data-name="Pfad 1188" d="M1042.83,381.068v3.379h5.843c0-.293,0-.58,0-.868,0-.758-.007-1.517-.019-2.275a7.232,7.232,0,0,0-.063-1.112.652.652,0,0,0-.334-.411c-.4-.181-.834-.3-1.254-.453a1.819,1.819,0,0,1-.445-.181c-.072-.05-.079-.193-.107-.27h6.123c.026.181-.042.307-.283.38a14.37,14.37,0,0,0-1.465.52.58.58,0,0,0-.294.4,12.906,12.906,0,0,0-.07,1.446c0,2.751-.012,5.5.013,8.253.007.8.036.758.654.988.4.149.8.28,1.212.4.244.071.3.2.195.453a30.33,30.33,0,0,0-6.036.018.279.279,0,0,1,.189-.414,12.837,12.837,0,0,1,1.26-.45.778.778,0,0,0,.609-.847c.046-1.272.079-2.544.114-3.817.007-.273,0-.547,0-.842h-5.845c0,.728,0,1.447,0,2.167l-.091.178a1.328,1.328,0,0,1,.1.324c.027.673.039,1.345.06,2.018a.839.839,0,0,0,.621.83l1.224.431c.248.087.248.086.218.38-.489.079-.966-.124-1.469-.061a12.43,12.43,0,0,1-1.523-.048c-.518,0-1.035.04-1.553.063l-1.541.07c-.081-.2-.044-.326.2-.409.566-.192,1.128-.4,1.679-.63a.459.459,0,0,0,.212-.349q.045-4.435.059-8.869a8.247,8.247,0,0,0-.116-1.348.579.579,0,0,0-.319-.366c-.478-.188-.974-.329-1.462-.491-.264-.088-.3-.145-.271-.385l3.869.071.116.035,2.1-.16c.1.241.022.362-.207.433-.447.139-.888.3-1.331.45a.729.729,0,0,0-.567.791,2.056,2.056,0,0,1-.1.4l.091.178" transform="translate(-981.818 -358.019)" fill="#8e8e8e"/>
      <path id="Pfad_1189" data-name="Pfad 1189" d="M286.969,388.041a6,6,0,0,1-3.446-.963,5.838,5.838,0,0,1-2.12-2.487,7.247,7.247,0,0,1-.669-2.7,7.758,7.758,0,0,1,.507-3.386,6.7,6.7,0,0,1,9.645-2.8,5.467,5.467,0,0,1,2.286,3.466,8.127,8.127,0,0,1-.6,5.391,5.931,5.931,0,0,1-4.064,3.3,11.425,11.425,0,0,1-1.535.179m4.245-6.387a9.418,9.418,0,0,0-.383-3.166,4.114,4.114,0,0,0-1.935-2.676,3.994,3.994,0,0,0-5.524,2.005,7.393,7.393,0,0,0-.5,3.271,9.238,9.238,0,0,0,.926,4.1,3.757,3.757,0,0,0,6.7.1,6.869,6.869,0,0,0,.717-3.632" transform="translate(-265.31 -354.096)" fill="#8e8e8e"/>
      <path id="Pfad_1190" data-name="Pfad 1190" d="M561.658,387.736c-.26.076-.383-.018-.451-.257-.1-.354-.233-.7-.353-1.048-.166-.48-.313-.578-.96-.591-.567-.011-1.134,0-1.7,0h-2.15v5.282c.956,0,1.841,0,2.726,0,.612,0,1.226-.027,1.837,0,.813.031.875-.227,1.126-.842.169-.414.291-.848.463-1.261.047-.113.2-.182.3-.271l.072.076-.147,3.359c-.436-.029-.868-.078-1.3-.083-2.126-.026-4.253-.054-6.38-.051-.851,0-1.7.084-2.554.124a.307.307,0,0,1-.156-.074c.041-.113.069-.287.151-.32.449-.184.914-.331,1.371-.5.616-.223.589-.224.6-.841.046-2.875.048-5.751.057-8.626,0-.352-.043-.7-.07-1.057a.677.677,0,0,0-.543-.618c-.428-.138-.852-.292-1.277-.439-.192-.067-.361-.15-.283-.411,1.709.033,3.421.094,5.132.093s3.423-.062,5.149-.1v2.965c-.243.086-.355-.006-.43-.245-.137-.437-.31-.862-.463-1.295a.61.61,0,0,0-.609-.411c-.938-.033-1.876-.051-2.814-.065-.627-.009-1.253,0-1.943,0v4.679h.232c1.042,0,2.085,0,3.127,0,.263,0,.525-.038.788-.058.527-.041.59-.495.752-.855a4.963,4.963,0,0,0,.268-.7c.065-.234.2-.279.429-.225Z" transform="translate(-521.723 -358.462)" fill="#8e8e8e"/>
      <path id="Pfad_1191" data-name="Pfad 1191" d="M11.247,374.512v3.354c-.316.086-.387-.16-.465-.349-.232-.56-.442-1.13-.663-1.694a.866.866,0,0,0-.675-.525,6.935,6.935,0,0,0-2.78-.084,4.4,4.4,0,0,0-2.646,1.52A6.054,6.054,0,0,0,2.683,380.5a6.919,6.919,0,0,0,.732,3.753A4.43,4.43,0,0,0,6.777,386.7a6.565,6.565,0,0,0,2.959-.209.305.305,0,0,0,.161-.231c.011-1.133.016-2.267-.005-3.4a.541.541,0,0,0-.279-.375c-.494-.236-1.007-.432-1.512-.644a.662.662,0,0,1-.239-.12.378.378,0,0,1-.1-.257c0-.044.135-.111.206-.108.69.031,1.38.093,2.07.108.643.014,1.287-.007,1.931-.031.443-.016.885-.063,1.326-.1a.287.287,0,0,1-.152.436c-.3.152-.6.311-.9.447a.853.853,0,0,0-.551.893c.02,1.224,0,2.449.011,3.674,0,.236-.071.344-.31.378-.818.118-1.63.288-2.451.369a10.559,10.559,0,0,1-2.154.049,7.416,7.416,0,0,1-4.1-1.609,5.7,5.7,0,0,1-1.8-2.594,9.356,9.356,0,0,1-.315-1.686,5.753,5.753,0,0,1,.377-2.859,6.317,6.317,0,0,1,1.651-2.409A8.311,8.311,0,0,1,7.48,374.3a11.883,11.883,0,0,1,3.5.169c.08.015.161.027.27.046" transform="translate(-0.49 -353.696)" fill="#8e8e8e"/>
      <path id="Pfad_1192" data-name="Pfad 1192" d="M1330.836,391.307c-.057-.2.029-.315.276-.387.469-.138.923-.324,1.387-.48a.552.552,0,0,0,.432-.559c.019-1.461.051-2.922.059-4.384.008-1.435,0-2.87-.019-4.3-.005-.469-.069-.937-.087-1.406-.009-.241-.143-.332-.343-.395-.515-.163-1.03-.326-1.539-.508-.09-.032-.146-.158-.218-.24.094-.055.189-.159.281-.158,1.762.033,3.523.1,5.284.114,1.223.011,2.447-.038,3.67-.068.345-.009.689-.048,1.058-.075v3.108c-.142-.107-.279-.159-.325-.254a6.7,6.7,0,0,1-.361-.9c-.267-.855-.272-.91-1.153-.931-1.4-.033-2.8-.007-4.193.006a.266.266,0,0,0-.184.171,3.358,3.358,0,0,0-.074.646c-.01.813,0,1.627-.013,2.44-.007.452-.041.9-.065,1.389.6,0,1.151.006,1.705,0,.8-.011,1.607-.039,2.411-.046a.778.778,0,0,0,.839-.591c.1-.331.238-.65.34-.981.068-.218.184-.3.419-.217v4.659a.253.253,0,0,1-.377-.172,8.855,8.855,0,0,1-.319-.914.882.882,0,0,0-.938-.806c-1.341,0-2.682,0-4.061,0,0,.342-.006.722,0,1.1.013.674.035,1.348.053,2.022.018.628.039,1.257.054,1.885,0,.176.063.259.259.258,1.514-.006,3.028-.008,4.542,0a.738.738,0,0,0,.744-.49c.24-.588.446-1.19.673-1.805h.312c-.045,1.11-.089,2.206-.131,3.27Z" transform="translate(-1257.744 -357.686)" fill="#8e8e8e"/>
      <path id="Pfad_1193" data-name="Pfad 1193" d="M1174.19,844.927l-.6.282-.052.046c-.171.051-.346.095-.513.156-.333.122-.376.257-.175.557q1.046,1.566,2.1,3.128c.282.417.573.829.867,1.238a1.6,1.6,0,0,0,1.305.667c0,.045,0,.09,0,.135-.062.056-.124.161-.186.161-.822,0-1.644-.007-2.466-.014h-.061a32.674,32.674,0,0,0-2.385-3.722c-.395-.57-.79-1.14-1.211-1.689a.706.706,0,0,0-.452-.223c-.334-.034-.673-.01-1.051-.01,0,.323-.006.63,0,.936.021.884.042,1.768.074,2.652a2.994,2.994,0,0,0,.1.809.816.816,0,0,0,.381.468c.381.16.806.217,1.193.365a.362.362,0,0,1,.256.437c-1.167-.027-2.314-.058-3.463-.073a1.133,1.133,0,0,0-.368.143c-.047.018-.115.058-.142.04a1.531,1.531,0,0,0-1.105-.076,3.712,3.712,0,0,1-.4,0c-.09-.228.015-.318.194-.383.436-.158.874-.315,1.3-.494a.524.524,0,0,0,.331-.7c-.026-.122.063-.264.064-.4q0-3.673-.006-7.346a3,3,0,0,0-.073-.955,1.108,1.108,0,0,0-.527-.549c-.345-.173-.743-.238-1.105-.383-.106-.042-.166-.2-.27-.332.615.026,1.138.061,1.66.068.742.011,1.485.016,2.227,0,.655-.015,1.311-.12,1.962-.083a19.8,19.8,0,0,1,2,.306l.051.046.223.064.051.046.161.066.057.034.217.127.059.041a2.374,2.374,0,0,1,.836,1l.045.051a2.893,2.893,0,0,1,.018,1.9.8.8,0,0,0-.016.188l-.157.267-.89.948-.058.04m-4.824.059a10.886,10.886,0,0,0,2.91-.188,1.817,1.817,0,0,0,1.118-.821,2.885,2.885,0,0,0,.256-1.426,1.678,1.678,0,0,0-.773-1.458,2.475,2.475,0,0,0-1.546-.471c-.653,0-1.306,0-1.966,0Z" transform="translate(-1101.763 -793.693)" fill="#8e8e8e"/>
      <path id="Pfad_1194" data-name="Pfad 1194" d="M273.159,841.245c-.362-.139-.729-.265-1.081-.426-.081-.037-.106-.194-.158-.3h4.733c.055.238.048.394-.332.464a5.958,5.958,0,0,0-1.19.484l-.057.038a4.641,4.641,0,0,0-.206.926c-.057,3.121-.093,6.243-.138,9.365,0,.2-.031.4-.048.593-.3.105-.477-.031-.647-.262q-3.182-4.349-6.379-8.687c-.147-.2-.313-.387-.471-.58l-.1.052c-.008.1-.024.208-.023.311q.01,3.084.025,6.168c0,.453.018.907.049,1.359a1.214,1.214,0,0,0,.148.356l.056.042c.464.168.922.355,1.394.5.24.072.3.187.249.357-1.125-.025-2.237-.061-3.349-.068-.386,0-.772.076-1.16.1-.083,0-.171-.081-.257-.125.061-.079.107-.2.187-.231.408-.168.825-.312,1.239-.466a.674.674,0,0,0,.432-.664c.029-.517.046-1.035.059-1.552.022-.919.036-1.839.057-2.758q.048-2.1.1-4.208a.615.615,0,0,0-.389-.627c-.422-.18-.86-.322-1.282-.5a1.6,1.6,0,0,1-.343-.277l.062-.082c.295,0,.589,0,.884,0,.757,0,1.513-.018,2.27-.009a.464.464,0,0,1,.324.166c1.244,1.705,2.474,3.422,3.717,5.128.734,1.008,1.487,2,2.232,3a.815.815,0,0,0,.1.094l.05-.015c-.015-1.941-.025-3.881-.05-5.822a5.771,5.771,0,0,0-.122-1.233c-.045-.191-.273-.339-.419-.507l-.168-.1" transform="translate(-249.717 -794.391)" fill="#8e8e8e"/>
      <path id="Pfad_1195" data-name="Pfad 1195" d="M807.105,381.041c-.455.026-.869.05-1.284.072-.371.02-.743.029-1.114.057a.956.956,0,0,0-.99.686,10.534,10.534,0,0,1-.523,1.313c-.055.121-.2.2-.307.3l-.085-.062V380.03H813.23v3.36c-.194.065-.342.066-.429-.185-.15-.432-.353-.847-.49-1.282a1,1,0,0,0-.945-.75c-.768-.061-1.54-.08-2.31-.115a1.259,1.259,0,0,0-.159.016c-.005.1-.014.2-.014.3q.008,4.523.019,9.047a7.006,7.006,0,0,0,.062.76.832.832,0,0,0,.542.722c.436.178.872.356,1.313.521.219.082.335.2.261.453a34.29,34.29,0,0,0-6.146.005c-.092-.245.024-.372.234-.456.437-.173.876-.342,1.309-.523a.861.861,0,0,0,.568-.907c0-3.186.037-6.372.061-9.558,0-.109,0-.218,0-.394" transform="translate(-758.739 -359.172)" fill="#8e8e8e"/>
      <path id="Pfad_1196" data-name="Pfad 1196" d="M927.89,850.932l.17-.054.051-.046c.324-.14.318-.444.323-.716q.027-1.822.025-3.646c0-1.526-.014-3.052-.024-4.578,0-.136-.035-.274-.026-.409.021-.305-.15-.444-.41-.532-.4-.135-.806-.267-1.2-.429-.12-.05-.2-.193-.358-.349h9.282v2.792c-.143-.127-.265-.187-.305-.282-.149-.351-.274-.713-.4-1.073-.157-.437-.28-.547-.735-.549-1.257-.005-2.514.005-3.771,0-.257,0-.382.073-.383.371,0,1.022-.035,2.044-.058,3.066-.005.234-.02.468-.031.718.915,0,1.8.009,2.682,0,.39-.006.779-.069,1.17-.084a.539.539,0,0,0,.517-.412c.121-.324.224-.656.366-.97.048-.106.189-.17.356-.312v4.4c-.152-.119-.283-.172-.326-.266a6.7,6.7,0,0,1-.374-.956.771.771,0,0,0-.774-.556c-1.157-.044-2.315-.043-3.473-.058-.036,0-.072.006-.149.014,0,.1,0,.193,0,.289q.027,2,.055,3.993c.006.426.037.459.458.467,1.158.023,2.316.059,3.473.051.339,0,.749.059.973-.325a4.07,4.07,0,0,0,.278-.592c.126-.328.223-.667.356-.991.042-.1.162-.173.246-.259l.075.064q-.05,1.468-.1,2.936l-.054.014c-.226.013-.452.044-.677.038-1.246-.036-2.491-.094-3.737-.12-.818-.017-1.637,0-2.455.017-.689.018-1.377.07-2.065.105-.09,0-.179,0-.26,0-.091-.257.009-.372.232-.434.32-.088.635-.192.953-.289l.105-.056" transform="translate(-875.596 -794.061)" fill="#8e8e8e"/>
      <path id="Pfad_1197" data-name="Pfad 1197" d="M9.291,851.157a5.485,5.485,0,0,1-2.716.371,3.78,3.78,0,0,1-3.6-2.4l0-.057a4.057,4.057,0,0,1-.157-.761c-.033-2.086-.044-4.172-.073-6.258a4.362,4.362,0,0,0-.116-1.023c-.045-.175-.238-.311-.364-.465l-.111-.042L1.55,840.3l-.051-.046-.223-.064-.051-.046c-.169-.066-.346-.125-.281-.338h5.48l-.207.229-.105.109-.335.109-.051.046-.5.174-.051.046-.389.181-.058.039-.106.067-.057.04a1.065,1.065,0,0,0-.154.359c-.028,2.117-.061,4.234-.052,6.351a3.055,3.055,0,0,0,.714,2.072,3.1,3.1,0,0,0,.62.434c.029.019.07.022.1.044a2,2,0,0,0,1.32.384,4.825,4.825,0,0,0,1.492-.071,2.534,2.534,0,0,0,1.454-1.006,3.1,3.1,0,0,0,.553-1.822c-.016-1.517,0-3.034-.016-4.551-.007-.625-.08-1.249-.092-1.874-.009-.484-.369-.606-.708-.749-.277-.117-.575-.181-.851-.3-.092-.039-.143-.173-.213-.264a.9.9,0,0,1,.281-.09c.893.026,1.786.076,2.679.09.38.006.762-.066,1.143-.083a1.4,1.4,0,0,1,.363.081c-.087.107-.154.252-.267.313-.263.143-.548.244-.823.364a.655.655,0,0,0-.4.65c-.017,1.388-.031,2.777-.056,4.165-.015.845-.021,1.691-.088,2.533a8.153,8.153,0,0,1-.294,1.254l-.1.162-.616.986-.162.166-1.046.667-.05.046" transform="translate(-0.878 -793.672)" fill="#8e8e8e"/>
      <path id="Pfad_1198" data-name="Pfad 1198" d="M1956.878,836.616l.34.88.044.052.342.881.042.052.231.607.043.05.231.608.043.051c.21.426.436.845.626,1.281.123.282.176.594.292.88s.283.537.4.814a3.482,3.482,0,0,0,.19.575c.17.248.164.647.609.684a2.886,2.886,0,0,1,.86.229c.123.051.193.23.286.351a.844.844,0,0,1-.285.109c-1.2-.026-2.4-.076-3.607-.088-.475-.005-.951.067-1.427.1-.081-.222-.005-.327.19-.384q.637-.187,1.269-.391c.177-.057.3-.13.127-.347-.074-.095-.033-.271-.08-.4-.188-.507-.395-1.007-.583-1.514-.082-.22-.136-.449-.226-.752-.428,0-.871.007-1.313,0-.326-.007-.652-.052-.978-.048-.664.008-1.327.03-1.99.065a.342.342,0,0,0-.251.175c-.271.733-.538,1.468-.777,2.213-.143.447.165.748.633.771a1.921,1.921,0,0,1,.715.309.234.234,0,0,1,.06.215c-.013.042-.129.076-.2.074-.891-.03-1.782-.086-2.673-.094a11.148,11.148,0,0,0-1.269.128l-.083-.087c.064-.1.106-.241.2-.293a4.476,4.476,0,0,1,.766-.346.825.825,0,0,0,.574-.653,4.544,4.544,0,0,1,.319-.7c.1-.221.179-.449.277-.67.089-.2.191-.4.284-.6.106-.229.216-.456.309-.69s.149-.485.255-.714c.155-.332.359-.641.507-.976.451-1.019.886-2.046,1.328-3.07.424-.982.841-1.967,1.284-2.94a.593.593,0,0,1,.38-.229c.054-.013.176.136.221.233.1.221.177.456.264.685l.042.051.068.223.042.051.286.772.043.051.068.223.042.051.068.223.042.05.451,1.156.043.052m-2.209-1.1-1.989,4.585h3.888l-1.9-4.585" transform="translate(-1841.761 -787.085)" fill="#8e8e8e"/>
      <path id="Pfad_1199" data-name="Pfad 1199" d="M1430.29,847.464a9.106,9.106,0,0,1-.9.515,2.878,2.878,0,0,1-.694.141,7.825,7.825,0,0,1-.778.108,10.6,10.6,0,0,1-1.381.038,16.116,16.116,0,0,1-1.653-.232c-.427-.075-.568-.356-.523-.807.064-.651.08-1.307.129-1.96a3.073,3.073,0,0,1,.124-.487c.164-.051.3,0,.367.259.153.609.324,1.213.487,1.82a.641.641,0,0,0,.643.421c.041-.006.1-.024.122-.006a1.86,1.86,0,0,0,1.336.232,2.725,2.725,0,0,0,1.905-.767,1.88,1.88,0,0,0-.266-2.912c-.669-.412-1.375-.765-2.062-1.149a6.806,6.806,0,0,1-2.117-1.516,2.785,2.785,0,0,1,.524-3.935,4.011,4.011,0,0,1,2.522-.908,7.337,7.337,0,0,1,2.787.442c.154.058.212.124.206.289-.024.684-.031,1.369-.058,2.053a.922.922,0,0,1-.122.291c-.081-.087-.2-.16-.237-.263-.182-.486-.329-.984-.52-1.466a.651.651,0,0,0-.326-.343,3.874,3.874,0,0,0-1.927-.212,1.973,1.973,0,0,0-1.577,2.692,1.885,1.885,0,0,0,.955.985c.821.434,1.661.832,2.492,1.249a3.316,3.316,0,0,1,1.849,2.007,2.89,2.89,0,0,1-.587,2.764l-.112.106-.55.508-.058.041" transform="translate(-1346.177 -790.417)" fill="#8e8e8e"/>
      <path id="Pfad_1200" data-name="Pfad 1200" d="M1773.769,850.939l.1.1.058.039.663.291.052.046c.228.08.462.148.682.247.082.037.131.145.195.221-.086.048-.174.141-.258.137-.611-.027-1.22-.1-1.83-.107-.874-.005-1.748.035-2.622.062-.184.005-.369.056-.55.044-.1-.006-.185-.1-.277-.16a2.5,2.5,0,0,1,.32-.3,1.783,1.783,0,0,1,.327-.113,2.845,2.845,0,0,1,.5-.209c.564-.1.768-.333.774-.9q.043-4.23.091-8.461c.005-.474-.029-.487-.5-.44-.494.05-.991.065-1.486.1-.722.051-.844.081-1.113.741-.141.346-.268.7-.408,1.045-.068.169-.162.315-.4.225v-3.042h9.369v3.042c-.223.084-.328-.012-.4-.207-.137-.386-.285-.769-.432-1.152a.816.816,0,0,0-.771-.619c-.742-.035-1.482-.112-2.257-.174-.008.153-.019.249-.018.344q.007,4.222.022,8.444a4.171,4.171,0,0,0,.117.688l.042.057" transform="translate(-1671.052 -794.383)" fill="#8e8e8e"/>
      <path id="Pfad_1201" data-name="Pfad 1201" d="M2189.816,850.176l1.037.429c0-.017.007-.035.01-.052.083.062.17.121.25.188s.156.144.235.216c-.106.056-.211.156-.319.158-.368.01-.737-.013-1.105-.028-.671-.026-1.343-.079-2.014-.075-.6,0-1.2.074-1.8.108-.129.007-.333.032-.276-.175.032-.114.208-.21.339-.272.477-.225.979-.405,1.435-.665.124-.07.17-.361.171-.551.017-2.942.021-5.885.027-8.827a.608.608,0,0,0-.025-.1c-.292.014-.595.024-.9.044a13.318,13.318,0,0,0-1.516.129.856.856,0,0,0-.511.424,12.116,12.116,0,0,0-.525,1.316c-.074.2-.187.279-.4.2v-3.089a91.02,91.02,0,0,0,9.356,0v3.2c-.144-.117-.28-.176-.325-.275-.166-.365-.314-.739-.446-1.118a.981.981,0,0,0-.99-.728c-.633-.018-1.265-.064-1.9-.1-.053,0-.107,0-.175,0a1.389,1.389,0,0,0-.029.195q.007,4,.018,8.005c0,.082.012.164.018.246v.057a1.189,1.189,0,0,0,.3,1.094l.058.041" transform="translate(-2064.059 -793.474)" fill="#8e8e8e"/>
      <path id="Pfad_1202" data-name="Pfad 1202" d="M694.248,845.68l-.067.223-.042.051-.067.223-.042.051-.067.223-.041.051-1.245,3.324c-.2.538-.409,1.073-.6,1.615-.073.21-.2.32-.406.257a.49.49,0,0,1-.263-.265c-.442-1.127-.865-2.261-1.3-3.389s-.893-2.264-1.351-3.391c-.425-1.047-.876-2.083-1.292-3.133a1.754,1.754,0,0,0-1.272-1.156.67.67,0,0,1-.3-.2c-.016-.016.091-.217.139-.217,1.172.019,2.343.062,3.515.081.369.006.739-.043,1.108-.068l.065.114a1.234,1.234,0,0,1-.3.235c-.389.146-.788.268-1.183.4l-.056.036a5.79,5.79,0,0,0,.1.77,8.17,8.17,0,0,0,.3.824l.041.052q.563,1.418,1.125,2.836c.016.042.026.086.039.129l.043.052,1.312,3.142.088-.006c.1-.221.2-.439.292-.663.276-.687.565-1.371.817-2.067.563-1.559,1.1-3.126,1.661-4.687a.33.33,0,0,0-.221-.489c-.287-.109-.576-.216-.854-.345-.092-.043-.154-.151-.29-.293h3.778c-.016.216-.016.216-.55.435l-.058.039a1.559,1.559,0,0,0-.716.9c-.071.156-.14.313-.21.469l-.044.051-.176.442-.044.051-.45,1.1-.044.051-.231.607-.044.051-.34.882-.043.05-.067.223-.042.051-.067.223-.042.051" transform="translate(-648.245 -793.846)" fill="#8e8e8e"/>
      <path id="Pfad_1203" data-name="Pfad 1203" d="M1625.792,851.145l.17.071.051.046.222.064.052.046.879.255.02-.066a.193.193,0,0,1,.033.041c.051.116.1.234.151.351a1.946,1.946,0,0,1-.445.08c-.383-.019-.763-.089-1.145-.1-.721-.017-1.444-.018-2.165,0-.47.012-.938.074-1.407.1a.829.829,0,0,1-.261-.075c.052-.088.084-.213.161-.257a4.278,4.278,0,0,1,.6-.257c.243-.092.493-.167.735-.262.291-.114.316-.392.318-.636q.038-3.819.049-7.638c0-.407-.052-.815-.087-1.222a.434.434,0,0,0-.355-.412,12.109,12.109,0,0,1-1.2-.43c-.11-.046-.18-.188-.3-.324h5.609c-.1.114-.162.255-.266.3a11.459,11.459,0,0,1-1.13.4.618.618,0,0,0-.5.653c-.033,2.575-.077,5.15-.1,7.724a9.4,9.4,0,0,0,.111,1.24c.012.1.1.181.154.271l.056.036" transform="translate(-1532.843 -794.391)" fill="#8e8e8e"/>
      <path id="Pfad_1204" data-name="Pfad 1204" d="M546.817,851.144c.462.171.926.34,1.386.516.174.067.311.166.233.334-1.408-.021-2.787-.049-4.166-.055-.369,0-.738.071-1.108.091-.076,0-.157-.077-.235-.119.055-.069.1-.174.166-.2.387-.155.778-.3,1.175-.429s.514-.247.521-.668c.033-2.224.078-4.447.1-6.67.006-.718-.062-1.436-.1-2.155a.512.512,0,0,0-.422-.524,12.467,12.467,0,0,1-1.253-.438c-.1-.04-.158-.183-.257-.305h5.552c.07.165-.015.273-.2.337-.336.114-.664.256-1.007.342a.756.756,0,0,0-.6.844c-.018,2.683-.044,5.365-.045,8.048a5.028,5.028,0,0,0,.208,1.014l.054.04" transform="translate(-513.063 -794.387)" fill="#8e8e8e"/>
      <path id="Pfad_1205" data-name="Pfad 1205" d="M1795.144,1162.9c-.007.323-.007.646-.023.969-.01.2-.06.4-.066.6-.012.375,0,.751-.013,1.125,0,.1-.075.2-.081.306a9.06,9.06,0,0,0-.034,1.4c.015.152.305.276.471.412.108.088.219.173.328.259a3.058,3.058,0,0,1-.433.066c-.551.008-1.1,0-1.654,0h-.4l-.049-.123a2.69,2.69,0,0,1,.643-.349c.2-.048.318-.116.345-.311.083-.6.162-1.194.24-1.791.053-.4.1-.8.155-1.2,0-.027.007-.055.008-.082.036-.621.063-1.243.112-1.862a.348.348,0,0,0-.272-.406c-.193-.067-.379-.152-.569-.229l.031-.1c.66,0,1.321,0,1.981,0,.045,0,.11.064.132.112.183.418.366.837.533,1.262.073.187.092.395.167.58s.208.355.288.542c.1.227.154.47.251.7s.232.433.334.657.179.452.306.779c.223-.484.411-.895.6-1.3.151-.324.309-.644.456-.969.127-.28.243-.565.367-.847.092-.209.194-.415.283-.625a4.172,4.172,0,0,0,.206-.552c.056-.212.152-.34.39-.354s.483-.095.724-.093c.354,0,.708.053,1.107.086-.045.066-.072.143-.125.176a2.317,2.317,0,0,1-.348.161c-.49.2-.534.264-.483.772.071.7.138,1.392.22,2.086s.168,1.4.278,2.1c.069.442.226.836.76.917.088.013.162.116.194.239h-2.8l-.053-.055c.1-.081.2-.208.313-.235a.829.829,0,0,0,.57-1.059c-.108-.554-.121-1.126-.19-1.688-.029-.238-.108-.469-.136-.707s-.015-.506-.035-.759c-.018-.221-.056-.44-.085-.66l-.087-.017c-.158.339-.318.677-.472,1.018-.043.1-.063.2-.1.3-.1.255-.205.508-.306.762-.01.024,0,.057-.006.08-.134.3-.261.612-.408.91-.157.321-.34.628-.5.948-.176.357-.336.723-.5,1.084-.023.049-.053.094-.12.211l-2.294-5.28-.153.029" transform="translate(-1694.769 -1097.731)" fill="#8e8e8e"/>
      <path id="Pfad_1206" data-name="Pfad 1206" d="M1518.315,1162.354c.608,0,1.216-.014,1.823.009.155.006.391.05.313.331,0,.007.007.016.011.025.151.3.312.6.45.916.085.192.131.4.2.6a3.5,3.5,0,0,0,.183.427c.113.216.249.42.356.638.08.163.125.342.194.511.061.15.136.294.2.444.07.172.13.349.2.522a.6.6,0,0,0,.062.1c.029-.015.063-.02.071-.037.292-.641.578-1.285.876-1.923.094-.2.245-.375.329-.578.174-.424.317-.86.481-1.288a4.069,4.069,0,0,1,.259-.568.283.283,0,0,1,.22-.133c.356.07.7-.136,1.062-.028a2.041,2.041,0,0,0,.649-.035,2,2,0,0,1,.267.037,2.869,2.869,0,0,1-.385.283c-.653.308-.685.38-.587,1.089.071.512.091,1.032.161,1.545.077.563.194,1.12.277,1.683a8.664,8.664,0,0,1,.087.986c.01.337.2.471.494.562a1.838,1.838,0,0,1,.406.254,4.917,4.917,0,0,1-.5.057c-.627.01-1.254.009-1.88.011h-.546c.132-.12.188-.213.264-.233.541-.145.86-.38.708-1.042-.168-.731-.236-1.486-.331-2.233-.03-.234.008-.475-.014-.711-.026-.282-.082-.562-.136-.922a2.471,2.471,0,0,0-.548,1.072,1.324,1.324,0,0,1-.054.165c-.124.3-.245.594-.375.887-.093.207-.206.405-.3.614-.2.467-.373.945-.586,1.406a8.638,8.638,0,0,1-.526.91c-.009.014-.18-.027-.2-.078-.158-.327-.29-.666-.441-1-.235-.51-.49-1.012-.714-1.526-.139-.318-.223-.66-.359-.98-.162-.38-.357-.745-.529-1.12a2.277,2.277,0,0,0-.26-.512c-.027.262-.066.524-.081.787q-.094,1.678-.175,3.357c-.032.656-.026.654.606.9a1.192,1.192,0,0,1,.248.18l-.047.064h-2.614a1.5,1.5,0,0,1,.255-.236c.212-.107.444-.177.646-.3a.436.436,0,0,0,.153-.3c.047-.432.054-.869.111-1.3.059-.453.178-.9.233-1.351.07-.582.1-1.169.148-1.754.021-.263.114-.548-.167-.736-.123-.082-.27-.126-.4-.2-.1-.055-.186-.127-.278-.191l.036-.062" transform="translate(-1434.285 -1098.49)" fill="#8e8e8e"/>
      <path id="Pfad_1207" data-name="Pfad 1207" d="M131.251,1166.466c0,.832-.01,1.578,0,2.325.008.4.357.457.644.569.143.056.279.131.419.2l-.04.108h-3.084l-.044-.057a1.28,1.28,0,0,1,.242-.179c1.017-.431.85-.16.862-1.3.013-1.2,0-2.394-.006-3.591a3.536,3.536,0,0,0-.054-.673c-.016-.08-.135-.159-.224-.2-.268-.117-.544-.215-.817-.32l.012-.087a1.459,1.459,0,0,1,.216-.031c1.206,0,2.413-.009,3.619.009a1.865,1.865,0,0,1,1.233.524,1.527,1.527,0,0,1-.411,2.39c-.238.113-.491.194-.765.3.165.25.331.507.5.76.375.552.747,1.1,1.131,1.65a1.217,1.217,0,0,0,.773.609c.044.007.082.054.2.133a2.719,2.719,0,0,1-.314.051,6.357,6.357,0,0,0-.849.015c-.385.061-.547-.166-.724-.433-.579-.87-1.15-1.748-1.777-2.583-.117-.156-.48-.127-.743-.187m-.024-.349a14.509,14.509,0,0,0,1.594-.148.987.987,0,0,0,.776-1.082,1.007,1.007,0,0,0-.782-1.109,14.829,14.829,0,0,0-1.588-.153Z" transform="translate(-122.061 -1099.381)" fill="#8e8e8e"/>
      <path id="Pfad_1208" data-name="Pfad 1208" d="M1030.887,1169.383c-.478,0-.957.008-1.434-.009-.069,0-.146-.122-.2-.2-.6-.872-1.191-1.744-1.777-2.622-.127-.191-.253-.312-.507-.259a1.355,1.355,0,0,1-.409-.053c0,.434,0,.849,0,1.265q0,.247.006.493c.019.835.02.833.792,1.129a1.632,1.632,0,0,1,.283.181l-.035.087h-3.078l-.048-.054c.085-.064.164-.171.257-.186.849-.13.844-.509.842-1.267,0-1.288,0-2.576-.009-3.863,0-.556-.012-.559-.553-.748-.155-.054-.3-.122-.455-.184l-.1-.041.038-.115c.249,0,.5,0,.746,0,1,.005,1.992,0,2.987.026a2.232,2.232,0,0,1,.817.189,1.349,1.349,0,0,1,.894,1.337,1.513,1.513,0,0,1-.9,1.438,5.785,5.785,0,0,1-.677.256c.269.4.53.805.8,1.2.293.43.569.874.9,1.275a3.5,3.5,0,0,0,.674.516,1.935,1.935,0,0,0,.171.1l-.022.109m-4.333-6.013v2.426c.391,0,.766.028,1.136-.005.929-.083,1.248-.46,1.195-1.359a1.021,1.021,0,0,0-.878-.974c-.467-.057-.94-.058-1.453-.086" transform="translate(-968.233 -1099.108)" fill="#8e8e8e"/>
      <path id="Pfad_1209" data-name="Pfad 1209" d="M1364.966,1165.111h-2.417l-.047-.08a1.19,1.19,0,0,1,.3-.232,1.253,1.253,0,0,0,.773-.973,3.84,3.84,0,0,1,.287-.564c.08-.164.154-.331.22-.5.091-.234.16-.477.26-.707.073-.169.2-.315.269-.485.177-.432.32-.878.5-1.307s.416-.87.624-1.306a3.55,3.55,0,0,1,.193-.42c.146-.223.294-.2.406.065.214.5.415,1.008.621,1.513.22.54.429,1.085.664,1.619.136.308.331.591.466.9.105.241.141.512.238.757a6.448,6.448,0,0,0,.46.99c.088.144.3.212.454.316l.449.3-.045.093h-3a.33.33,0,0,1,.346-.3.911.911,0,0,0,.132-.016c.493-.118.512-.151.353-.638-.1-.32-.2-.644-.323-.955a.363.363,0,0,0-.266-.187c-.658-.016-1.316,0-1.974-.011-.295,0-.354.234-.465.417a1.335,1.335,0,0,0-.1.3c-.085.275-.176.548-.244.826-.009.037.09.121.155.151.148.069.31.108.455.181.073.036.123.12.25.251m1.956-2.628-1.041-2.472-1.079,2.472Z" transform="translate(-1287.72 -1094.807)" fill="#8e8e8e"/>
      <path id="Pfad_1210" data-name="Pfad 1210" d="M1993.63,1165.2h-3l-.042-.094a2.078,2.078,0,0,1,.385-.2c.5-.136.572-.225.4-.809-.287-.957-.224-1-1.379-1.01-.43,0-.86-.009-1.289.008-.071,0-.161.105-.2.183a4.852,4.852,0,0,0-.285.627c-.086.236-.144.482-.208.7l.82.495-.048.094h-2.351c.106-.275.349-.343.549-.463.118-.071.274-.142.323-.254.154-.346.255-.716.4-1.068.091-.221.237-.419.335-.638s.171-.469.265-.7c.068-.168.15-.33.228-.493.169-.354.342-.7.507-1.06.091-.2.164-.4.253-.6.2-.456.409-.911.628-1.36.023-.047.141-.067.213-.063a.194.194,0,0,1,.126.113c.289.721.565,1.447.857,2.167s.593,1.432.9,2.143c.1.235.26.446.364.681.062.14.054.309.1.458a2.19,2.19,0,0,0,.211.472.718.718,0,0,0,.264.242c.207.11.429.192.641.292.02.009.018.065.036.137m-3.819-5.1-1.081,2.479h2.109l-1.028-2.479" transform="translate(-1877.4 -1094.91)" fill="#8e8e8e"/>
      <path id="Pfad_1211" data-name="Pfad 1211" d="M870.773,1163.437H873.3l.042.078a1.175,1.175,0,0,1-.305.178c-.427.1-.526.4-.534.778-.021,1.022-.036,2.044-.056,3.067a2.534,2.534,0,0,1-.643,1.831,2.627,2.627,0,0,1-2.262.618,2.109,2.109,0,0,1-1.787-.994,1.451,1.451,0,0,1-.221-.647c-.043-1.181-.054-2.362-.081-3.543a1.782,1.782,0,0,0-.058-.614.94.94,0,0,0-.379-.377,4.05,4.05,0,0,0-.574-.254l.034-.109h3l.029.085a3.627,3.627,0,0,1-.494.229.727.727,0,0,0-.576.8c.006.967-.037,1.933-.036,2.9a3.467,3.467,0,0,0,.122.888c.238.886.951,1.122,1.866,1.035a1.461,1.461,0,0,0,1.458-1.655c0-1.141-.034-2.282-.026-3.423,0-.363-.2-.469-.48-.553-.2-.06-.4-.139-.6-.209l.033-.108" transform="translate(-818.888 -1099.582)" fill="#8e8e8e"/>
      <path id="Pfad_1212" data-name="Pfad 1212" d="M271.211,1165.759h-2.99c.267-.368.689-.3,1.01-.515-.171-.494-.341-1-.527-1.5-.018-.048-.129-.086-.2-.086-.713-.006-1.425-.01-2.138,0a.336.336,0,0,0-.246.177c-.151.391-.275.792-.409,1.189-.062.184-.007.287.191.339a2.462,2.462,0,0,1,.477.2c.044.022.06.1.088.151-.045.021-.09.061-.135.061-.727,0-1.454,0-2.233-.065.084-.079.155-.2.254-.231a1.22,1.22,0,0,0,.811-.831c.719-1.7,1.46-3.4,2.205-5.093a2.59,2.59,0,0,1,.345-.468,2.551,2.551,0,0,1,.33.465q1.145,2.738,2.264,5.487c.1.246.285.3.489.373a4.623,4.623,0,0,1,.477.241l-.064.1m-2.709-2.621-1.029-2.45-1.086,2.45Z" transform="translate(-249.606 -1095.473)" fill="#8e8e8e"/>
      <path id="Pfad_1213" data-name="Pfad 1213" d="M738.982,1165.3c.616,0,1.225,0,1.835,0,.311,0,.368-.271.471-.487.067-.139.144-.272.217-.408l.1.029v2.372l-.087.04a2.493,2.493,0,0,1-.178-.313c-.267-.673-.265-.677-.991-.688-.42-.007-.841,0-1.261,0a.88.88,0,0,0-.122.023c0,.6-.011,1.209,0,1.816.017.761.026.758.758,1.027a2.021,2.021,0,0,1,.328.2l-.038.085h-3.08l-.044-.058a1.2,1.2,0,0,1,.243-.178c.884-.353.85-.215.862-1.294s0-2.174-.006-3.261c0-.271-.041-.542-.032-.812a.4.4,0,0,0-.344-.461c-.247-.062-.483-.167-.724-.253l.018-.139c.321,0,.641,0,.962,0,1.27-.006,2.541-.01,3.811-.024.207,0,.293.043.284.271-.018.444-.005.889-.005,1.334l-.107.037a2.71,2.71,0,0,1-.182-.34c-.261-.71-.259-.718-1.025-.709q-.736.008-1.47.062a.287.287,0,0,0-.188.207c-.015.647-.009,1.294-.009,1.931" transform="translate(-696.448 -1098.701)" fill="#8e8e8e"/>
      <path id="Pfad_1214" data-name="Pfad 1214" d="M5.315,1164.22v2.175c.484,0,.992,0,1.5,0a1.949,1.949,0,0,1,.217-.017c.329.036.472-.146.564-.43a2.984,2.984,0,0,1,.237-.457,3.009,3.009,0,0,1,.1.526c.01.574,0,1.149-.007,1.723a1.658,1.658,0,0,1-.048.22,1.863,1.863,0,0,1-.214-.371c-.106-.412-.248-.7-.785-.644a11.27,11.27,0,0,1-1.6-.062c0,.669-.013,1.287,0,1.9.019.743-.11.653.669.94.16.059.311.14.467.21l-.011.089H3.267l-.04-.051c.094-.061.181-.16.282-.176.658-.108.851-.47.822-1.134-.06-1.368-.028-2.74-.021-4.11,0-.378-.225-.512-.531-.606-.2-.06-.387-.142-.58-.215l.024-.1H8.269v1.545l-.1.029c-.078-.171-.17-.337-.231-.514-.21-.607-.184-.489-.678-.481-.626.011-1.253,0-1.946,0" transform="translate(-3.023 -1099.771)" fill="#8e8e8e"/>
      <path id="Pfad_1215" data-name="Pfad 1215" d="M1168.02,1163.771a1.042,1.042,0,0,1-.284.651l-.236.2c0-.6-.006-1.11.011-1.616,0-.045.157-.121.241-.121,1.006-.009,2.011-.006,3.017-.006.594,0,1.188.006,1.782,0,.189,0,.257.053.252.247-.012.481,0,.963,0,1.445l-.082.041a.957.957,0,0,1-.2-.2c-.108-.211-.171-.448-.3-.646a.58.58,0,0,0-.358-.252c-.393-.048-.793-.047-1.236-.066,0,.4,0,.777,0,1.156.005,1.252.021,2.5.01,3.755a.476.476,0,0,0,.361.526,3.972,3.972,0,0,1,.479.2.43.43,0,0,1,.212.252h-3.172a2.6,2.6,0,0,1,.3-.239,2.634,2.634,0,0,1,.516-.242c.3-.086.286-.289.274-.531-.011-.222.043-.447.045-.671.011-1.27.014-2.54.019-3.81,0-.414-.057-.456-.479-.4-.19.027-.39,0-.575.048a3.787,3.787,0,0,0-.555.223l-.042.057" transform="translate(-1103.42 -1099.049)" fill="#8e8e8e"/>
      <path id="Pfad_1216" data-name="Pfad 1216" d="M621.612,1166.413c.417-.4.809-.771,1.206-1.142.438-.409.882-.812,1.322-1.219.187-.174.116-.268-.1-.335-.17-.052-.331-.132-.5-.2l.026-.109h2.484l.042.068c-1.388.569-2.3,1.728-3.45,2.633.173.2.311.383.466.546.733.775,1.454,1.562,2.214,2.311a6.609,6.609,0,0,0,.957.649.908.908,0,0,1,.149.167.628.628,0,0,1-.208.077c-.654-.009-1.308-.034-1.962-.039-.221,0-.443.036-.713.06.126-.4.534-.268.737-.514l-2.673-2.953" transform="translate(-587.495 -1099.554)" fill="#8e8e8e"/>
      <path id="Pfad_1217" data-name="Pfad 1217" d="M2142.641,1170.143h-3.155a1.683,1.683,0,0,1,.233-.229,1.232,1.232,0,0,1,.256-.094c.585-.195.591-.194.6-.795.022-1.22.042-2.441.053-3.661,0-.334-.022-.67-.049-1a.253.253,0,0,0-.128-.172c-.275-.126-.557-.234-.835-.352-.03-.013-.049-.049-.12-.125h3.148l.027.08c-.239.111-.472.239-.72.326-.158.056-.28.091-.281.3-.012,1.483-.035,2.966-.048,4.449a2.052,2.052,0,0,0,.06.541.446.446,0,0,0,.2.254c.183.1.39.147.58.231a1.267,1.267,0,0,1,.227.164l-.052.089" transform="translate(-2022.059 -1099.841)" fill="#8e8e8e"/>
      <path id="Pfad_1218" data-name="Pfad 1218" d="M583.976,1170.145h-3.121a.787.787,0,0,1,.125-.178.954.954,0,0,1,.2-.09c.669-.3.744-.158.735-1.01-.015-1.439,0-2.878.005-4.317a.37.37,0,0,0-.309-.43,5.09,5.09,0,0,1-.705-.3l.023-.091h3.045l.028.082a4.511,4.511,0,0,1-.625.252.515.515,0,0,0-.423.574q0,2.3,0,4.6a.437.437,0,0,0,.327.471,4.72,4.72,0,0,1,.514.185,1.3,1.3,0,0,1,.232.169l-.047.078" transform="translate(-548.974 -1099.858)" fill="#8e8e8e"/>
      <path id="Pfad_1219" data-name="Pfad 1219" d="M2016.363,791.5a1.081,1.081,0,0,1-.883-.947c-.006-.328.556-.845.925-.85a.9.9,0,1,1-.042,1.8" transform="translate(-1904.86 -746.362)" fill="#8e8e8e"/>
      <path id="Pfad_1220" data-name="Pfad 1220" d="M2081.108,790.556a1.008,1.008,0,0,1,.847-.865.978.978,0,0,1,.93.9.99.99,0,0,1-.934.9.925.925,0,0,1-.843-.936" transform="translate(-1966.885 -746.349)" fill="#8e8e8e"/>
      <path id="Pfad_1221" data-name="Pfad 1221" d="M1336.893,910.858l.157-.267-.157.267" transform="translate(-1263.517 -860.613)" fill="#8e8e8e"/>
      <path id="Pfad_1222" data-name="Pfad 1222" d="M173.244,1031.511l.162-.166-.162.166" transform="translate(-163.735 -974.739)" fill="#8e8e8e"/>
      <path id="Pfad_1223" data-name="Pfad 1223" d="M1110.046,416.879l-.091-.178.091.178" transform="translate(-1049.035 -393.83)" fill="#8e8e8e"/>
      <path id="Pfad_1224" data-name="Pfad 1224" d="M1109.931,537.83l.091-.178-.091.178" transform="translate(-1049.012 -508.143)" fill="#8e8e8e"/>
      <path id="Pfad_1225" data-name="Pfad 1225" d="M187.426,1010.6l.1-.162-.1.162" transform="translate(-177.139 -954.979)" fill="#8e8e8e"/>
      <path id="Pfad_1226" data-name="Pfad 1226" d="M427.1,853.685l.168.1-.168-.1" transform="translate(-403.66 -806.83)" fill="#8e8e8e"/>
      <path id="Pfad_1227" data-name="Pfad 1227" d="M95.328,844.817l.105-.109-.105.109" transform="translate(-90.096 -798.346)" fill="#8e8e8e"/>
      <path id="Pfad_1228" data-name="Pfad 1228" d="M2164.6,133.232l-.045-.163.045.163" transform="translate(-2045.752 -125.766)" fill="#8e8e8e"/>
      <path id="Pfad_1229" data-name="Pfad 1229" d="M1543.618,1027.549l.111-.106-.111.106" transform="translate(-1458.896 -971.052)" fill="#8e8e8e"/>
      <path id="Pfad_1230" data-name="Pfad 1230" d="M23.272,853.686l.111.041-.111-.041" transform="translate(-21.995 -806.831)" fill="#8e8e8e"/>
      <path id="Pfad_1231" data-name="Pfad 1231" d="M1109.83,381.124l-.116-.035.116.035" transform="translate(-1048.807 -360.173)" fill="#8e8e8e"/>
      <path id="Pfad_1232" data-name="Pfad 1232" d="M1096.821,1049.362l.054-.014.023.08-.077-.066" transform="translate(-1036.622 -991.754)" fill="#8e8e8e"/>
      <path id="Pfad_1233" data-name="Pfad 1233" d="M1373.053,1044.269l0-.135,0,.135" transform="translate(-1297.69 -986.827)" fill="#8e8e8e"/>
      <path id="Pfad_1234" data-name="Pfad 1234" d="M950.982,1036.174l-.105.056.105-.056" transform="translate(-898.688 -979.303)" fill="#8e8e8e"/>
      <path id="Pfad_1235" data-name="Pfad 1235" d="M2284.672,1011.419v-.057l.058.029-.058.029" transform="translate(-2159.277 -955.853)" fill="#8e8e8e"/>
      <path id="Pfad_1236" data-name="Pfad 1236" d="M2077.685,854.588l-.042-.051.042.051" transform="translate(-1963.611 -807.636)" fill="#8e8e8e"/>
      <path id="Pfad_1237" data-name="Pfad 1237" d="M67.185,858.785l.056-.04-.056.04" transform="translate(-63.498 -811.613)" fill="#8e8e8e"/>
      <path id="Pfad_1238" data-name="Pfad 1238" d="M1322.669,852.525l-.059-.042.059.042" transform="translate(-1250.018 -805.694)" fill="#8e8e8e"/>
      <path id="Pfad_1239" data-name="Pfad 1239" d="M38.251,1009.43l0,.057,0-.057" transform="translate(-36.152 -954.027)" fill="#8e8e8e"/>
      <path id="Pfad_1240" data-name="Pfad 1240" d="M2120.646,959.5l-.043-.051.043.051" transform="translate(-2004.212 -906.792)" fill="#8e8e8e"/>
      <path id="Pfad_1241" data-name="Pfad 1241" d="M832.192,958.51l.041-.051-.041.051" transform="translate(-786.517 -905.854)" fill="#8e8e8e"/>
      <path id="Pfad_1242" data-name="Pfad 1242" d="M834.167,953.515l.042-.051-.042.051" transform="translate(-788.383 -901.133)" fill="#8e8e8e"/>
      <path id="Pfad_1243" data-name="Pfad 1243" d="M1870.753,1029.461l-.042-.057.042.057" transform="translate(-1768.036 -972.905)" fill="#8e8e8e"/>
      <path id="Pfad_1244" data-name="Pfad 1244" d="M836.167,948.519l.042-.051-.042.051" transform="translate(-790.274 -896.411)" fill="#8e8e8e"/>
      <path id="Pfad_1245" data-name="Pfad 1245" d="M1873.437,1032.385l-.058-.039.058.039" transform="translate(-1770.558 -975.685)" fill="#8e8e8e"/>
      <path id="Pfad_1246" data-name="Pfad 1246" d="M2290.264,1032.383l-.058-.041.058.041" transform="translate(-2164.507 -975.682)" fill="#8e8e8e"/>
      <path id="Pfad_1247" data-name="Pfad 1247" d="M320.152,1033.423l-.056-.042.056.042" transform="translate(-302.527 -976.664)" fill="#8e8e8e"/>
      <path id="Pfad_1248" data-name="Pfad 1248" d="M614.048,1033.414l-.054-.04.054.04" transform="translate(-580.295 -976.657)" fill="#8e8e8e"/>
      <path id="Pfad_1249" data-name="Pfad 1249" d="M1692.548,1033.425l-.056-.036.056.036" transform="translate(-1599.599 -976.671)" fill="#8e8e8e"/>
      <path id="Pfad_1250" data-name="Pfad 1250" d="M955.954,1034.355l-.051.046.051-.046" transform="translate(-903.438 -977.584)" fill="#8e8e8e"/>
      <path id="Pfad_1251" data-name="Pfad 1251" d="M2115.656,947.519l-.043-.05.043.05" transform="translate(-1999.497 -895.467)" fill="#8e8e8e"/>
      <path id="Pfad_1252" data-name="Pfad 1252" d="M1696.67,1035.4l-.051-.046.051.046" transform="translate(-1603.5 -978.525)" fill="#8e8e8e"/>
      <path id="Pfad_1253" data-name="Pfad 1253" d="M1701.651,1037.4l-.052-.046.052.046" transform="translate(-1608.206 -980.419)" fill="#8e8e8e"/>
      <path id="Pfad_1254" data-name="Pfad 1254" d="M1532.524,1038.67l.059-.041-.059.041" transform="translate(-1448.411 -981.624)" fill="#8e8e8e"/>
      <path id="Pfad_1255" data-name="Pfad 1255" d="M1886.572,1038.4l-.052-.046.052.046" transform="translate(-1782.978 -981.363)" fill="#8e8e8e"/>
      <path id="Pfad_1256" data-name="Pfad 1256" d="M78.292,852.729l.051-.046-.051.046" transform="translate(-73.995 -805.883)" fill="#8e8e8e"/>
      <path id="Pfad_1257" data-name="Pfad 1257" d="M2075.686,849.592l-.042-.051.042.051" transform="translate(-1961.721 -802.914)" fill="#8e8e8e"/>
      <path id="Pfad_1258" data-name="Pfad 1258" d="M1317.686,849.573l-.057-.034.057.034" transform="translate(-1245.311 -802.912)" fill="#8e8e8e"/>
      <path id="Pfad_1259" data-name="Pfad 1259" d="M884.8,848.865l.058-.039-.058.039" transform="translate(-836.234 -802.238)" fill="#8e8e8e"/>
      <path id="Pfad_1260" data-name="Pfad 1260" d="M838.166,943.523l.042-.051-.042.051" transform="translate(-792.163 -891.689)" fill="#8e8e8e"/>
      <path id="Pfad_1261" data-name="Pfad 1261" d="M153.281,1046.577l.05-.046-.05.046" transform="translate(-144.868 -989.092)" fill="#8e8e8e"/>
      <path id="Pfad_1262" data-name="Pfad 1262" d="M1323.663,1049.273h0" transform="translate(-1251.013 -991.683)" fill="#8e8e8e"/>
      <path id="Pfad_1263" data-name="Pfad 1263" d="M1307.764,938.655l.052-.046-.052.046" transform="translate(-1235.987 -887.093)" fill="#8e8e8e"/>
      <path id="Pfad_1264" data-name="Pfad 1264" d="M88.288,848.732l.051-.046-.051.046" transform="translate(-83.442 -802.106)" fill="#8e8e8e"/>
      <path id="Pfad_1265" data-name="Pfad 1265" d="M11.3,848.685l.051.046-.051-.046" transform="translate(-10.683 -802.105)" fill="#8e8e8e"/>
      <path id="Pfad_1266" data-name="Pfad 1266" d="M1313.82,847.546l-.051-.046.051.046" transform="translate(-1241.662 -800.985)" fill="#8e8e8e"/>
      <path id="Pfad_1267" data-name="Pfad 1267" d="M840.165,938.525l.042-.051-.042.051" transform="translate(-794.052 -886.966)" fill="#8e8e8e"/>
      <path id="Pfad_1268" data-name="Pfad 1268" d="M6.3,846.687l.051.046-.051-.046" transform="translate(-5.959 -800.216)" fill="#8e8e8e"/>
      <path id="Pfad_1269" data-name="Pfad 1269" d="M1308.822,845.548l-.051-.046.051.046" transform="translate(-1236.938 -799.097)" fill="#8e8e8e"/>
      <path id="Pfad_1270" data-name="Pfad 1270" d="M775.229,938.518l-.043-.052.043.052" transform="translate(-732.64 -886.958)" fill="#8e8e8e"/>
      <path id="Pfad_1271" data-name="Pfad 1271" d="M2110.666,935.521l-.042-.052.042.052" transform="translate(-1994.781 -884.126)" fill="#8e8e8e"/>
      <path id="Pfad_1272" data-name="Pfad 1272" d="M842.164,933.55l.043-.05-.043.05" transform="translate(-795.941 -882.265)" fill="#8e8e8e"/>
      <path id="Pfad_1273" data-name="Pfad 1273" d="M1319.611,932.775l.058-.04-.058.04" transform="translate(-1247.184 -881.542)" fill="#8e8e8e"/>
      <path id="Pfad_1274" data-name="Pfad 1274" d="M2103.647,918.53l-.044-.052.044.052" transform="translate(-1988.146 -868.067)" fill="#8e8e8e"/>
      <path id="Pfad_1275" data-name="Pfad 1275" d="M849.138,916.544l.044-.051-.044.051" transform="translate(-802.533 -866.191)" fill="#8e8e8e"/>
      <path id="Pfad_1276" data-name="Pfad 1276" d="M854.136,904.553l.044-.051-.044.051" transform="translate(-807.256 -854.858)" fill="#8e8e8e"/>
      <path id="Pfad_1277" data-name="Pfad 1277" d="M2096.671,901.548l-.042-.052.042.052" transform="translate(-1981.555 -852.017)" fill="#8e8e8e"/>
      <path id="Pfad_1278" data-name="Pfad 1278" d="M863.132,883.569l.043-.051-.043.051" transform="translate(-815.759 -835.026)" fill="#8e8e8e"/>
      <path id="Pfad_1279" data-name="Pfad 1279" d="M753.26,883.565l-.041-.052.041.052" transform="translate(-711.878 -835.021)" fill="#8e8e8e"/>
      <path id="Pfad_1280" data-name="Pfad 1280" d="M2087.682,879.567l-.043-.05.043.05" transform="translate(-1973.058 -831.245)" fill="#8e8e8e"/>
      <path id="Pfad_1281" data-name="Pfad 1281" d="M2085.682,874.572l-.042-.051.042.051" transform="translate(-1971.169 -826.523)" fill="#8e8e8e"/>
      <path id="Pfad_1282" data-name="Pfad 1282" d="M1177,1178.233l.042-.057-.042.057" transform="translate(-1112.401 -1113.512)" fill="#8e8e8e"/>
      <path id="Pfad_1283" data-name="Pfad 1283" d="M867.13,874.576l.044-.051-.044.051" transform="translate(-819.537 -826.527)" fill="#8e8e8e"/>
      <path id="Pfad_1284" data-name="Pfad 1284" d="M1338.955,871.571l-.045-.051.045.051" transform="translate(-1265.423 -823.686)" fill="#8e8e8e"/>
      <path id="Pfad_1285" data-name="Pfad 1285" d="M462.011,857.829l.057-.038-.057.038" transform="translate(-436.653 -810.711)" fill="#8e8e8e"/>
      <path id="Pfad_1286" data-name="Pfad 1286" d="M745.892,853.856l.056-.036-.056.036" transform="translate(-704.953 -806.958)" fill="#8e8e8e"/>
      <path id="Pfad_1287" data-name="Pfad 1287" d="M70.14,856.859l.058-.039-.058.039" transform="translate(-66.29 -809.793)" fill="#8e8e8e"/>
      <path id="Pfad_1288" data-name="Pfad 1288" d="M2083.66,869.573l-.043-.051.043.051" transform="translate(-1969.257 -821.798)" fill="#8e8e8e"/>
      <path id="Pfad_1289" data-name="Pfad 1289" d="M514.17,1248.073l-.012.04-.023-.036a.145.145,0,0,1,.036,0" transform="translate(-485.916 -1179.572)" fill="#8e8e8e"/>
      <path id="Pfad_1290" data-name="Pfad 1290" d="M440.063,993.26l-.05.015a.311.311,0,0,1,.05-.015" transform="translate(-415.863 -938.745)" fill="#8e8e8e"/>
      <path id="Pfad_1291" data-name="Pfad 1291" d="M1807.523,281.9c.018.339.041.678.052,1.017.007.191,0,.383-.007.574q-.023-.8-.046-1.591" transform="translate(-1708.316 -266.427)" fill="#8e8e8e"/>
      <path id="Pfad_1292" data-name="Pfad 1292" d="M1827.963,247.836c-.172.122-.317.222-.46.326-.073.053-.135.146-.213.16a2.308,2.308,0,0,1-.432,0,2.3,2.3,0,0,1,.081-.368,1.471,1.471,0,0,1,.191-.321.375.375,0,0,0-.111-.621,1.57,1.57,0,0,0-.286-.106,1.024,1.024,0,0,0-.071.273,1.078,1.078,0,0,1-.817,1.137c-.452.136-1.247-.416-1.164-.824a.587.587,0,0,0,0-.218c-.02-.107-.057-.212-.086-.317a1.147,1.147,0,0,0-.321.172c-.353.377-.108,1,.545,1.187-.179.15-.316.358-.458.362a.929.929,0,0,1-.59-.239,3.144,3.144,0,0,1-.354-.578.321.321,0,0,0-.235-.142.8.8,0,0,1-.839-1.062,2.6,2.6,0,0,1,2.323-2.011,3.822,3.822,0,0,1,3.736,1.4,1.614,1.614,0,0,1,.2,1.6,3.762,3.762,0,0,0-.033,2.039,3,3,0,0,1,.005.915.314.314,0,0,1-.185.222c-.061.019-.19-.061-.235-.131-.182-.284-.346-.579-.509-.875a.829.829,0,0,1,.056-.882,4.616,4.616,0,0,0,.327-.858c.018-.055-.031-.132-.061-.246m-2.3-1.843.871.3a.751.751,0,0,0-.424-.776,2.188,2.188,0,0,0-1.9-.274,1.793,1.793,0,0,0-1.056,1.266.442.442,0,0,0,.169.31.371.371,0,0,0,.318-.029c.148-.086.259-.233.4-.323a1.116,1.116,0,0,1,.439-.166c.035,0,.1.211.145.321l1.1-.162-.067-.469m.373,1.094c-.2-.141-.3-.267-.421-.281-.245-.03-.332.184-.309.365.014.11.208.294.283.277.137-.031.245-.187.446-.361" transform="translate(-1722.296 -231.144)" fill="#8e8e8e"/>
    </g>
  </g>
</svg>
