<svg xmlns="http://www.w3.org/2000/svg" xmlns:xlink="http://www.w3.org/1999/xlink" width="76.762" height="78.406" viewBox="0 0 76.762 78.406">
  <defs>
    <clipPath id="clip-path">
      <rect id="Rechteck_40" data-name="Rechteck 40" width="76.762" height="78.406" fill="#8e8e8e"/>
    </clipPath>
  </defs>
  <g id="Gruppe_25" data-name="Gruppe 25" transform="translate(0 0.002)">
    <g id="Gruppe_24" data-name="Gruppe 24" transform="translate(0 -0.002)" clip-path="url(#clip-path)">
      <path id="Pfad_31" data-name="Pfad 31" d="M229.855,163.228c-.009.176-.027.351-.027.527q0,8.443,0,16.887c0,.136-.009.274,0,.409.023.3-.1.43-.413.429q-2.627-.012-5.254,0c-.322,0-.406-.138-.4-.435.007-2.24,0-4.48,0-6.721q0-8.392.008-16.785a1.183,1.183,0,0,0-.378-.929c-1.816-1.786-3.619-3.586-5.426-5.381-.1-.1-.212-.2-.393-.368-.016.255-.035.425-.035.594q0,14.635,0,29.271c0,.136-.006.273,0,.409.009.226-.09.339-.321.339h-5.424c-.207,0-.319-.094-.318-.309,0-.148,0-.3,0-.443q-.007-11.8-.015-23.607c0-1.9-.027-3.8-.045-5.7,0-.14-.027-.28-.049-.5-.164.131-.274.2-.366.294q-2.766,2.734-5.532,5.467a.85.85,0,0,0-.221.683q0,5.919,0,11.838,0,5.851,0,11.7c0,.568-.006.574-.57.574h-4.912c-.611,0-.611,0-.612-.6q-.012-8.477-.025-16.955c0-.23-.021-.459-.038-.788-.2.174-.326.268-.435.376q-2.719,2.685-5.434,5.372c-.32.316-.32.317-.635,0l-3.358-3.348c-.315-.314-.316-.316,0-.632l21.772-21.7q1.522-1.517,3.043-3.036c.4-.4.4-.4.789-.012L231.291,156.5l8.378,8.315c.363.36.362.362.007.717-1.134,1.133-2.275,2.26-3.4,3.4-.213.217-.337.206-.546,0q-2.707-2.72-5.433-5.423c-.11-.11-.226-.214-.339-.32l-.1.035" transform="translate(-176.08 -130.32)" fill="#8e8e8e"/>
      <path id="Pfad_32" data-name="Pfad 32" d="M284.766,186.664a4.3,4.3,0,1,1,4.361-4.368,4.3,4.3,0,0,1-4.361,4.368" transform="translate(-261.323 -165.902)" fill="#8e8e8e"/>
      <path id="Pfad_33" data-name="Pfad 33" d="M499.08,4.3A4.279,4.279,0,0,1,503.461,0a4.369,4.369,0,0,1,4.273,4.343A4.328,4.328,0,0,1,499.08,4.3" transform="translate(-464.999 0.002)" fill="#8e8e8e"/>
      <path id="Pfad_34" data-name="Pfad 34" d="M717.935,182.278a4.244,4.244,0,0,1,4.249-4.308,4.316,4.316,0,1,1-.017,8.632,4.24,4.24,0,0,1-4.232-4.324" transform="translate(-668.9 -165.817)" fill="#8e8e8e"/>
      <path id="Pfad_35" data-name="Pfad 35" d="M.006,1029.815c0-1.216.008-2.433-.005-3.649,0-.335.1-.463.451-.456,1.148.024,2.3.011,3.444.032a3.528,3.528,0,0,1,3.639,3.444,4.364,4.364,0,0,1-1.124,3.528,3.59,3.59,0,0,1-2.553,1.135c-1.17.028-2.341.012-3.512.03-.319,0-.342-.178-.342-.416q0-1.825,0-3.649m1.542-.082H1.535q0,1.347,0,2.693c0,.091,0,.182.009.273.022.471.1.545.574.553.318.005.638-.02.954,0a2.708,2.708,0,0,0,2.562-1.749,4.935,4.935,0,0,0,.16-3.147,2.492,2.492,0,0,0-2.137-1.944c-.548-.079-1.109-.07-1.663-.114-.327-.026-.451.115-.449.432.007,1,0,2,0,3" transform="translate(-0.001 -955.667)" fill="#8e8e8e"/>
      <path id="Pfad_36" data-name="Pfad 36" d="M551.7,1024.161a4.477,4.477,0,0,1,2.609.671,3.492,3.492,0,0,1,1.682,2.528,4.425,4.425,0,0,1-1.346,4.254,4.931,4.931,0,0,1-6.11-.11,3.97,3.97,0,0,1-1.213-3.273,3.919,3.919,0,0,1,2.934-3.89,8.7,8.7,0,0,1,1.445-.179m-2.775,4.19a4.5,4.5,0,0,0,.46,2.246,2.434,2.434,0,0,0,2.5,1.418,2.592,2.592,0,0,0,2.3-1.9,5.23,5.23,0,0,0,0-3.578,2.417,2.417,0,0,0-2.35-1.793,2.555,2.555,0,0,0-2.534,1.613,4.761,4.761,0,0,0-.38,2" transform="translate(-509.942 -954.222)" fill="#8e8e8e"/>
      <path id="Pfad_37" data-name="Pfad 37" d="M131.741,1032.581a10.4,10.4,0,0,1-1.342-.187,4.083,4.083,0,0,1-2.832-5.307,3.99,3.99,0,0,1,3.848-2.966,4.936,4.936,0,0,1,3.15.78,3.406,3.406,0,0,1,1.561,2.874,5.566,5.566,0,0,1-.2,2.021,3.957,3.957,0,0,1-3.67,2.725c-.17.007-.341,0-.511,0l-.006.06m-2.72-4.378a4.369,4.369,0,0,0,.615,2.619,2.252,2.252,0,0,0,1.432,1.07,2.514,2.514,0,0,0,3.032-1.416,5.167,5.167,0,0,0-.009-4.446,2.593,2.593,0,0,0-4.241-.423,4,4,0,0,0-.83,2.6" transform="translate(-118.678 -954.175)" fill="#8e8e8e"/>
      <path id="Pfad_38" data-name="Pfad 38" d="M908.89,1023.871a10.554,10.554,0,0,1,1.666.276,3.773,3.773,0,0,1,2.661,3.983c-.085,2.879-2.2,4.424-4.884,4.185a5,5,0,0,1-1.291-.285,3.616,3.616,0,0,1-2.541-3.338,4.239,4.239,0,0,1,1.5-3.93,3.914,3.914,0,0,1,2.884-.807l.007-.083m-2.814,4.234a4.452,4.452,0,0,0,.493,2.279A2.42,2.42,0,0,0,909,1031.75a2.584,2.584,0,0,0,2.326-1.867,5.193,5.193,0,0,0,.026-3.577,2.425,2.425,0,0,0-2.391-1.833,2.558,2.558,0,0,0-2.529,1.673,4.768,4.768,0,0,0-.358,1.959" transform="translate(-842.717 -953.954)" fill="#8e8e8e"/>
      <path id="Pfad_39" data-name="Pfad 39" d="M943.334,853.785l2.843,3.992a6.086,6.086,0,0,0-.878.007,1.393,1.393,0,0,1-1.581-.833c-.528-.926-1.168-1.789-1.775-2.668a2.126,2.126,0,0,0-.422-.359,2.087,2.087,0,0,0-.136.523c0,.978.019,1.955.053,2.932.011.32-.1.429-.411.41a6.213,6.213,0,0,0-.784,0c-.3.019-.391-.1-.38-.4.044-1.238.084-2.477.092-3.716.008-1.216-.014-2.433-.046-3.648-.008-.3.086-.4.383-.4,1.057.024,2.114.028,3.171.047a1.852,1.852,0,0,1,1.8,1.2,2,2,0,0,1-.528,2.16,5.774,5.774,0,0,1-.989.583,4.037,4.037,0,0,1-.415.166m-1.953-1.994c0,.42,0,.84,0,1.26,0,.232.1.331.328.318.272-.015.545-.011.817-.023a1.2,1.2,0,0,0,1.114-.768,4.107,4.107,0,0,0,.184-1.058,1.3,1.3,0,0,0-1.167-1.315c-.328.008-.655,0-.983,0-.219,0-.3.115-.293.323.006.42,0,.84,0,1.26" transform="translate(-875.682 -791.608)" fill="#8e8e8e"/>
      <path id="Pfad_40" data-name="Pfad 40" d="M454.809,1029.6c.092.022.183.047.276.067a1.957,1.957,0,0,1,1.807,2.005,2.252,2.252,0,0,1-1.935,2.22,19.443,19.443,0,0,1-2.11.075c-.341.007-.682-.012-1.023,0-.261.006-.352-.091-.35-.363.018-2.137.023-4.274.028-6.41,0-.341-.011-.682-.041-1.021-.022-.245.051-.363.31-.359,1,.015,2-.013,3,.044a1.73,1.73,0,0,1,1.724,2.176,1.924,1.924,0,0,1-1.286,1.349c-.132.055-.27.1-.405.143l.006.078m-1.828,2.018h-.027c0,.284,0,.568,0,.852-.007,1.03.029,1.051,1.077.9a1.319,1.319,0,0,0,1.212-.994c.276-1.12.11-2.5-1.732-2.464a1.631,1.631,0,0,1-.2-.006c-.237-.024-.329.089-.327.317,0,.466,0,.932,0,1.4m-.03-3.821h.019c0,.408-.016.817.01,1.223a.425.425,0,0,0,.215.32,1.833,1.833,0,0,0,1.583-.6,2.052,2.052,0,0,0,.019-1.89,1.559,1.559,0,0,0-1.57-.486c-.217.016-.283.139-.279.342.008.363,0,.725,0,1.088" transform="translate(-420.629 -955.759)" fill="#8e8e8e"/>
      <path id="Pfad_41" data-name="Pfad 41" d="M279.1,1028.138c-.012.155-.037.31-.033.465.038,1.556.068,3.113.132,4.668.016.38-.155.4-.442.394-.48-.013-.477,0-.472-.393.031-2.432.058-4.864.1-7.3a2.228,2.228,0,0,1,.124-.5c.192.073.436.094.567.227,1.021,1.036,2.013,2.1,3.028,3.142.666.684,1.354,1.346,2.035,2.015.085.083.183.153.341.282.02-.242.049-.405.046-.568-.035-1.568-.068-3.135-.122-4.7-.01-.3.095-.4.365-.371.23.025.552-.124.546.334-.031,2.431-.045,4.863-.076,7.295a2.489,2.489,0,0,1-.137.557,1.977,1.977,0,0,1-.585-.278c-1.593-1.589-3.17-3.195-4.753-4.794-.181-.182-.376-.35-.564-.525l-.1.045" transform="translate(-259.278 -955.451)" fill="#8e8e8e"/>
      <path id="Pfad_42" data-name="Pfad 42" d="M731.17,856.111a5.153,5.153,0,0,0,.05-.536c-.035-1.557-.079-3.113-.109-4.67,0-.126.065-.358.118-.363a2.974,2.974,0,0,1,.729.042c.027,0,.046.163.045.249q-.043,3.7-.1,7.4a2.078,2.078,0,0,1-.114.462,1.578,1.578,0,0,1-.473-.218c-.942-.922-1.87-1.859-2.8-2.792q-1.156-1.159-2.31-2.319c-.094-.094-.2-.178-.372-.338a5.728,5.728,0,0,0-.056.6c.034,1.489.076,2.977.114,4.465.013.507-.265.712-.733.5-.092-.041-.151-.257-.15-.392.012-1.512.042-3.023.059-4.535.01-.909,0-1.819.009-2.728,0-.141.071-.392.133-.4a1.164,1.164,0,0,1,.539.1c.1.038.166.151.245.232q2.419,2.475,4.838,4.949c.083.085.183.154.337.283" transform="translate(-675.501 -792.453)" fill="#8e8e8e"/>
      <path id="Pfad_43" data-name="Pfad 43" d="M608.278,856.072c-.6,0-1.13.011-1.656-.013-.075,0-.166-.171-.208-.279-.249-.635-.494-1.271-.721-1.914a.45.45,0,0,0-.473-.35q-1.175,0-2.35,0a.381.381,0,0,0-.395.3c-.223.62-.478,1.229-.677,1.857-.1.331-.267.474-.608.423-.153-.023-.31-.023-.521-.037.06-.177.1-.312.152-.441q1.517-3.559,3.038-7.116c.031-.073.057-.149.084-.224.156-.43.362-.555.79-.411.116.039.209.217.265.35q1.466,3.525,2.919,7.054c.1.247.219.488.36.8m-4.2-6.113c-.04.077-.064.116-.082.157-.33.786-.662,1.57-.987,2.358-.119.286.078.344.291.347.511.006,1.023,0,1.534-.008.26,0,.346-.109.246-.366-.287-.742-.562-1.488-.845-2.231a1.976,1.976,0,0,0-.156-.256" transform="translate(-559.652 -789.915)" fill="#8e8e8e"/>
      <path id="Pfad_44" data-name="Pfad 44" d="M176.573,856.434c.071-.183.119-.318.175-.45q1.588-3.751,3.172-7.5a.363.363,0,0,1,.42-.248c.208.014.417-.039.532.242,1.049,2.566,2.111,5.127,3.167,7.689a2.824,2.824,0,0,1,.078.306c-.55,0-1.065.012-1.578-.013-.075,0-.167-.171-.209-.279-.244-.624-.487-1.25-.707-1.882a.489.489,0,0,0-.517-.389q-1.158.009-2.316,0a.378.378,0,0,0-.4.295c-.218.61-.476,1.207-.664,1.825-.115.377-.306.524-.683.461-.14-.023-.282-.032-.472-.053m2.209-3.272h2.328l-1.044-2.76-.14,0-1.144,2.757" transform="translate(-164.515 -790.308)" fill="#8e8e8e"/>
      <path id="Pfad_45" data-name="Pfad 45" d="M791.118,1031.172c-.027.337-.046.675-.089,1.01a.309.309,0,0,1-.161.2,5.736,5.736,0,0,1-4.5.337,3.54,3.54,0,0,1-2.445-3.053,4.363,4.363,0,0,1,1.159-3.934,3.794,3.794,0,0,1,2.479-1.083,7.014,7.014,0,0,1,3.1.3c.52.207.532.218.372.737-.06.193-.124.385-.2.622-.1-.088-.163-.14-.218-.2a2.909,2.909,0,0,0-4.81.788,4.863,4.863,0,0,0-.1,3.505,2.881,2.881,0,0,0,4.765,1.218c.184-.162.365-.328.548-.492l.108.053" transform="translate(-730.335 -954.637)" fill="#8e8e8e"/>
      <path id="Pfad_46" data-name="Pfad 46" d="M1053.662,1025.9c-.112-.167-.159-.242-.211-.313a1.649,1.649,0,0,0-2.563-.2,1.2,1.2,0,0,0,.283,1.762,12.15,12.15,0,0,0,1.219.605c.164.079.331.151.5.215a2.276,2.276,0,0,1,1.5,2.637,2.55,2.55,0,0,1-2.227,2.089,4.547,4.547,0,0,1-2.626-.385c-.185-.086-.266-.169-.2-.385.1-.33.159-.67.235-1.006l.1-.013c.079.114.163.225.236.343a1.752,1.752,0,0,0,2.371.76,1.3,1.3,0,0,0,.765-1.162,1.322,1.322,0,0,0-.589-1.327,4.581,4.581,0,0,0-.543-.285c-.4-.186-.816-.349-1.212-.546a2.078,2.078,0,0,1-1.246-2.464,2.2,2.2,0,0,1,2-1.855,4.371,4.371,0,0,1,2.341.271c.218.09.275.2.19.413-.1.249-.189.5-.316.844" transform="translate(-977.661 -954.375)" fill="#8e8e8e"/>
      <path id="Pfad_47" data-name="Pfad 47" d="M696.648,1025.7a1.718,1.718,0,0,0-1.993-.893,1.257,1.257,0,0,0-.558,2.137,7.173,7.173,0,0,0,.95.528c.347.169.7.323,1.064.461a2.408,2.408,0,0,1,.54,4,3.487,3.487,0,0,1-3.032.609,6.992,6.992,0,0,1-1.03-.353c-.2-.068-.252-.185-.195-.391.09-.324.151-.655.225-.984l.09-.024c.08.109.169.212.239.327a1.749,1.749,0,0,0,2.393.769,1.455,1.455,0,0,0,.153-2.483,11.257,11.257,0,0,0-1.165-.563c-.3-.143-.6-.274-.886-.436a2.3,2.3,0,0,1,.317-3.928,4.753,4.753,0,0,1,1.191-.263,3.847,3.847,0,0,1,1.9.316c.2.082.269.184.189.387-.1.26-.2.522-.293.783l-.1,0" transform="translate(-645.093 -954.258)" fill="#8e8e8e"/>
      <path id="Pfad_48" data-name="Pfad 48" d="M469.576,849.75a2.692,2.692,0,0,1-.184-.225,1.672,1.672,0,0,0-1.775-.808,1.245,1.245,0,0,0-1.064.97,1.16,1.16,0,0,0,.643,1.4c.473.246.968.451,1.459.661a2.323,2.323,0,0,1,1.649,2.52,2.491,2.491,0,0,1-2.314,2.261,4.414,4.414,0,0,1-2.5-.353c-.221-.1-.315-.235-.252-.479.081-.312.147-.628.244-1.048l.385.554a1.748,1.748,0,0,0,2.077.742,1.359,1.359,0,0,0,.995-1.255,1.34,1.34,0,0,0-.729-1.392c-.545-.281-1.11-.523-1.66-.794a2.075,2.075,0,0,1-1.245-2.212,2.242,2.242,0,0,1,1.708-2.028,4.431,4.431,0,0,1,2.455.128c.446.146.476.237.332.677l-.223.682" transform="translate(-433.451 -790.228)" fill="#8e8e8e"/>
      <path id="Pfad_49" data-name="Pfad 49" d="M98.3,849.65a6.5,6.5,0,0,0-.429-.562,1.637,1.637,0,0,0-1.63-.447,1.262,1.262,0,0,0-.332,2.334,12.338,12.338,0,0,0,1.46.655,2.315,2.315,0,0,1,1.664,2.577,2.484,2.484,0,0,1-2.286,2.21,4.419,4.419,0,0,1-2.5-.337c-.243-.112-.361-.234-.272-.52s.143-.607.211-.911l.09-.015c.132.19.262.382.4.569a1.741,1.741,0,0,0,2.029.625,1.459,1.459,0,0,0,.246-2.638c-.5-.266-1.019-.5-1.54-.726a2.295,2.295,0,0,1,.761-4.387,3.891,3.891,0,0,1,2.043.227c.434.174.46.216.329.651-.064.212-.146.417-.244.693" transform="translate(-87.535 -790.123)" fill="#8e8e8e"/>
      <path id="Pfad_50" data-name="Pfad 50" d="M386.412,854.027c0-1.217.009-2.433-.006-3.65,0-.33.116-.434.437-.43,1.125.014,2.251.01,3.377,0,.26,0,.4.064.4.361s-.126.371-.395.363c-.648-.019-1.3-.009-1.944-.029-.278-.008-.385.088-.379.372q.021,1.04,0,2.081c-.006.286.105.379.381.369.557-.02,1.114-.008,1.671-.031.3-.012.466.049.461.4s-.208.336-.451.323c-.556-.03-1.113-.04-1.669-.076-.268-.017-.4.049-.392.35.014.875.012,1.751,0,2.626,0,.266.09.366.358.352.681-.034,1.364-.043,2.045-.078.281-.015.386.088.384.369s-.1.385-.384.383c-1.171-.009-2.342-.01-3.513,0-.307,0-.388-.129-.386-.411.009-1.216,0-2.433,0-3.65" transform="translate(-360.02 -791.907)" fill="#8e8e8e"/>
      <path id="Pfad_51" data-name="Pfad 51" d="M854.976,853.995c0-1.2.009-2.409-.006-3.614,0-.324.1-.44.43-.435,1.125.014,2.25,0,3.375.007.351,0,.521.222.4.551-.031.083-.206.156-.316.157-.647.008-1.3.009-1.943-.02-.34-.015-.462.091-.449.441.024.681.015,1.364,0,2.045,0,.252.095.343.342.336q.852-.026,1.7-.024c.207,0,.485-.1.47.295s-.049.433-.468.417c-.568-.021-1.136-.038-1.7-.069-.247-.014-.348.07-.345.327.009.886.011,1.773,0,2.659,0,.274.1.357.364.344.67-.033,1.34-.045,2.01-.076.254-.012.411.033.411.341,0,.28-.076.414-.385.411q-1.756-.018-3.511,0c-.306,0-.388-.126-.385-.41.01-1.227,0-2.455,0-3.682" transform="translate(-796.587 -791.905)" fill="#8e8e8e"/>
      <path id="Pfad_52" data-name="Pfad 52" d="M302.346,854.145q0-1.79,0-3.579c0-.464,0-.466.481-.468.261,0,.523.005.784,0,.217,0,.288.08.283.308-.044,2.056-.085,4.112-.1,6.168-.008.915.016.916.933.9.557-.007,1.114-.01,1.67-.03.257-.009.345.1.331.342-.012.222.019.438-.316.435q-1.875-.012-3.75,0c-.267,0-.319-.135-.318-.364.005-1.239,0-2.477,0-3.716Z" transform="translate(-281.695 -792.046)" fill="#8e8e8e"/>
      <path id="Pfad_53" data-name="Pfad 53" d="M563.54,850.049c.779,0,.746,0,.738.777-.022,2.193-.014,4.387-.018,6.581,0,.068,0,.136,0,.2,0,.566,0,.566-.555.567-.239,0-.477,0-.716,0-.206,0-.272-.094-.271-.3q.017-3.784.018-7.567c0-.2.074-.269.258-.266s.364,0,.546,0" transform="translate(-524.293 -792.001)" fill="#8e8e8e"/>
    </g>
  </g>
</svg>
