<svg id="Gruppe_33" data-name="Gruppe 33" xmlns="http://www.w3.org/2000/svg" xmlns:xlink="http://www.w3.org/1999/xlink" width="101.862" height="55.725" viewBox="0 0 101.862 55.725">
  <defs>
    <clipPath id="clip-path">
      <rect id="Rechteck_46" data-name="Rechteck 46" width="101.862" height="55.724" fill="#8e8e8e"/>
    </clipPath>
  </defs>
  <g id="Gruppe_32" data-name="Gruppe 32" clip-path="url(#clip-path)">
    <path id="Pfad_111" data-name="Pfad 111" d="M182.116,55.626a7.638,7.638,0,0,0-.294-.732c-.576-1.07-1.163-2.135-1.747-3.2q-2.439-4.455-4.878-8.909-2.13-3.888-4.268-7.772c-.372-.673-.269-.9.5-.9,3.453-.005,6.907-.019,10.36.008a2.638,2.638,0,0,0,2.178-.9,17.641,17.641,0,0,0,1.986-2.782c2.245-4.179,4.423-8.394,6.618-12.6q2.284-4.376,4.547-8.762a7.575,7.575,0,0,0,1.2-3.916c-.142-2.713-1.741-5.169-5.2-5.161q-33.635.078-67.271.026c-1.583,0-3.166.011-4.748-.005a1.034,1.034,0,0,0-1.074.642c-.495,1-1.085,1.96-1.6,2.952q-2.448,4.693-4.868,9.4c-.285.553-.526,1.129-.857,1.846H177c-.14.384-.212.657-.334.906A26.445,26.445,0,0,0,175.46,18.2a1.6,1.6,0,0,1-1.807,1.106c-6.235-.033-12.471,0-18.706-.033a1.765,1.765,0,0,0-1.724,1.034q-1.292,2.431-2.566,4.871-3.751,7.2-7.494,14.4-3.846,7.39-7.69,14.781c-.2.382-.352.788-.544,1.222a2.949,2.949,0,0,0,.4.076c5.2,0,10.408.018,15.612-.026a1.479,1.479,0,0,0,1.039-.707c1.412-2.625,2.75-5.289,4.135-7.928.671-1.278,1.4-2.529,2.155-3.9.2.306.326.475.428.657.839,1.5,1.689,2.99,2.508,4.5,1.091,2.013,2.172,4.031,3.225,6.065a2.156,2.156,0,0,0,2.209,1.381c4.843-.086,9.688-.035,14.533-.037.279,0,.557-.024.938-.042" transform="translate(-96.463 -0.001)" fill="#8e8e8e"/>
    <path id="Pfad_112" data-name="Pfad 112" d="M18.871,170.051c4.508,0,9.016-.009,13.523.011a1.268,1.268,0,0,0,1.28-.715q3.483-6.7,6.973-13.4c1.892-3.641,3.77-7.289,5.666-10.928,1.853-3.556,3.724-7.1,5.577-10.656.331-.635.263-.733-.449-.734-5.059,0-10.119-.014-15.178.024a1.608,1.608,0,0,0-1.046.585,8.647,8.647,0,0,0-.9,1.541Q30.852,142.4,27.4,149.036q-2.952,5.686-5.871,11.389a2.474,2.474,0,0,1-2.746,1.5,1.619,1.619,0,0,1-1.6-2.123,3.333,3.333,0,0,1,.292-.882q2.434-4.706,4.89-9.4,3.917-7.482,7.844-14.958c.467-.892.432-.938-.56-.938-4.891,0-9.783.017-14.674-.018a1.67,1.67,0,0,0-1.662.993q-1.616,3.112-3.231,6.223c-1.781,3.431-3.592,6.847-5.332,10.3C3.025,154.54.767,157.737.214,161.649c-.227,1.6-.468,3.257.385,4.762,1.274,2.247,2.984,3.743,5.828,3.668,4.145-.11,8.3-.028,12.444-.028" transform="translate(0 -114.357)" fill="#8e8e8e"/>
    <path id="Pfad_113" data-name="Pfad 113" d="M182.116,55.626c-.38.018-.659.042-.938.042-4.844,0-9.69-.048-14.533.037a2.156,2.156,0,0,1-2.209-1.381c-1.052-2.033-2.134-4.052-3.225-6.065-.818-1.51-1.668-3-2.508-4.5-.1-.182-.228-.351-.428-.657-.76,1.37-1.484,2.62-2.155,3.9-1.386,2.639-2.724,5.3-4.135,7.928a1.479,1.479,0,0,1-1.039.707c-5.2.044-10.408.029-15.612.026a2.949,2.949,0,0,1-.4-.076c.192-.434.345-.84.544-1.222q3.84-7.393,7.69-14.781,3.747-7.2,7.494-14.4,1.272-2.442,2.566-4.871a1.765,1.765,0,0,1,1.724-1.034c6.235.029,12.471,0,18.706.033A1.6,1.6,0,0,0,175.46,18.2a26.444,26.444,0,0,1,1.206-2.432c.122-.249.194-.522.334-.906H112.7c.331-.717.572-1.293.857-1.846q2.423-4.706,4.868-9.4c.518-.993,1.107-1.949,1.6-2.952A1.034,1.034,0,0,1,121.1.022c1.583.016,3.166.005,4.748.005q33.635,0,67.271-.026c3.455-.008,5.055,2.448,5.2,5.161a7.575,7.575,0,0,1-1.2,3.916q-2.265,4.385-4.547,8.762c-2.2,4.206-4.373,8.421-6.618,12.6a17.641,17.641,0,0,1-1.986,2.782,2.638,2.638,0,0,1-2.178.9c-3.453-.027-6.907-.013-10.36-.008-.772,0-.876.227-.5.9q2.146,3.879,4.268,7.772,2.441,4.454,4.878,8.909c.584,1.066,1.17,2.131,1.747,3.2a7.638,7.638,0,0,1,.294.732" transform="translate(-96.463 -0.001)" fill="#8e8e8e"/>
    <path id="Pfad_114" data-name="Pfad 114" d="M18.871,170.051c-4.148,0-8.3-.081-12.444.028-2.844.075-4.554-1.421-5.828-3.668-.853-1.505-.612-3.158-.385-4.762.553-3.912,2.81-7.109,4.532-10.525,1.74-3.452,3.551-6.868,5.332-10.3q1.615-3.112,3.231-6.223a1.67,1.67,0,0,1,1.662-.993c4.891.034,9.783.017,14.674.018.992,0,1.027.046.56.938q-3.917,7.481-7.844,14.958-2.457,4.693-4.89,9.4a3.333,3.333,0,0,0-.292.882,1.619,1.619,0,0,0,1.6,2.123,2.474,2.474,0,0,0,2.746-1.5q2.933-5.7,5.871-11.389,3.445-6.637,6.921-13.257a8.64,8.64,0,0,1,.9-1.541,1.608,1.608,0,0,1,1.046-.585c5.059-.038,10.118-.028,15.178-.024.711,0,.78.1.449.734-1.853,3.555-3.725,7.1-5.577,10.656-1.9,3.639-3.775,7.287-5.666,10.928q-3.483,6.7-6.973,13.4a1.267,1.267,0,0,1-1.28.715c-4.508-.02-9.016-.011-13.523-.011" transform="translate(0 -114.357)" fill="#8e8e8e"/>
  </g>
</svg>
