<svg xmlns="http://www.w3.org/2000/svg" width="50.941" height="50.941" viewBox="1126.529 2031.339 50.941 50.941"><g data-name="Gruppe 75"><path d="M1137.173 2031.34c.405.28.51.667.507 1.152-.02 2.802-.004 5.603-.016 8.404a.991.991 0 0 0 .32.78c1.592 1.573 3.17 3.159 4.751 4.743.129.128.267.255.363.406.225.356.174.706-.126.992-.284.27-.624.307-.956.09-.164-.107-.302-.258-.442-.398-1.584-1.581-3.16-3.17-4.757-4.737a1.077 1.077 0 0 0-.68-.28 635.618 635.618 0 0 0-8.454-.003c-.485.003-.872-.101-1.154-.506v-10.644h10.644Z" fill="#fff" fill-rule="evenodd" data-name="Pfad 2491"/><path d="M1176.964 2031.34c.405.28.51.667.506 1.152-.018 2.968-.008 5.935-.01 8.902 0 .839-.251 1.086-1.103 1.086-2.818 0-5.636.005-8.454-.006a.991.991 0 0 0-.78.321c-1.584 1.604-3.183 3.194-4.778 4.787-.117.117-.231.243-.368.331-.35.226-.702.2-.996-.095-.294-.294-.32-.647-.094-.997.089-.136.217-.249.334-.366 1.605-1.607 3.216-3.207 4.807-4.828.161-.164.279-.45.28-.68.019-2.819.022-5.637.003-8.455-.003-.485.1-.873.506-1.153h10.147Z" fill="#fff" fill-rule="evenodd" data-name="Pfad 2492"/><path d="M1126.53 2071.627c.28-.406.667-.51 1.152-.506 2.818.019 5.636.016 8.454-.003.23-.002.517-.119.681-.28 1.61-1.579 3.197-3.18 4.792-4.772.13-.128.255-.266.406-.364.334-.215.673-.18.956.09.3.286.351.636.127.992-.095.152-.234.278-.362.407-1.592 1.596-3.192 3.184-4.771 4.793-.162.164-.28.45-.282.68-.019 2.834-.012 5.67-.013 8.504 0 .85-.247 1.102-1.086 1.103-2.967 0-5.934-.009-8.901.01-.485.002-.872-.103-1.154-.507v-10.147Z" fill="#fff" fill-rule="evenodd" data-name="Pfad 2493"/><path d="M1126.53 2053.324c.28-.407.667-.513 1.152-.507 1.923.023 3.845.008 5.768.01.774.001 1.034.267 1.037 1.051.002.692 0 1.385 0 2.132h2.113c.862 0 1.724-.008 2.586.003.534.007.883.35.868.816-.015.447-.352.765-.866.768-1.541.009-3.082.003-4.7.003v2.081c-.003.851-.248 1.102-1.087 1.103-1.906.001-3.813-.013-5.718.01-.486.005-.872-.103-1.154-.507v-6.963Z" fill="#fff" fill-rule="evenodd" data-name="Pfad 2494"/><path d="M1155.477 2031.34c.405.28.512.667.507 1.152-.023 1.923-.008 3.845-.01 5.768-.001.773-.269 1.034-1.053 1.037-.692.002-1.384 0-2.13 0 0 1.048.031 2.055-.02 3.058-.015.282-.206.65-.434.806-.507.348-1.123-.081-1.133-.757-.014-1.01-.004-2.02-.004-3.107h-2.082c-.851-.002-1.1-.247-1.101-1.087-.001-1.906.013-3.813-.01-5.718-.005-.486.1-.873.507-1.153h6.963Z" fill="#fff" fill-rule="evenodd" data-name="Pfad 2495"/><path d="M1177.462 2076.694c0 1.524.002 3.049-.002 4.573-.001.718-.278 1.002-.985 1.003-3.065.003-6.13.003-9.195 0-.674-.002-.957-.292-.958-.978-.004-2.85-.007-5.7.006-8.55.001-.34-.09-.582-.334-.824-1.58-1.56-3.145-3.134-4.715-4.704-.094-.094-.194-.182-.28-.282-.318-.374-.319-.8-.008-1.118.31-.319.749-.335 1.115-.016.25.218.474.464.708.698 1.418 1.417 2.844 2.826 4.246 4.259.281.287.562.386.954.383 2.783-.015 5.567-.009 8.35-.008.848 0 1.096.248 1.097 1.09.002 1.492 0 2.983 0 4.474" fill="#fff" fill-rule="evenodd" data-name="Pfad 2496"/><path d="m1141.673 2051.703 5.509 3.213c1.23.718 2.465 1.426 3.683 2.163.159.096.32.343.32.521.019 3.63.014 7.26.013 10.89 0 .05-.012.098-.024.19-.128-.058-.246-.1-.353-.163-2.861-1.667-5.72-3.339-8.583-5.002-.376-.218-.593-.49-.592-.948.008-3.53.005-7.061.005-10.592 0-.064.01-.127.022-.272" fill="#fff" fill-rule="evenodd" data-name="Pfad 2497"/><path d="M1152.791 2068.715v-6.093c0-1.658-.007-3.315.011-4.972.002-.178.103-.437.24-.518 3.038-1.79 6.087-3.561 9.135-5.335.026-.015.06-.017.136-.038.01.13.027.251.027.372.001 3.447-.004 6.894.006 10.342.001.46-.144.785-.553 1.021-2.907 1.687-5.807 3.384-8.71 5.077-.07.04-.143.07-.292.144" fill="#fff" fill-rule="evenodd" data-name="Pfad 2498"/><path d="m1142.482 2050.297 3.067-1.79c1.944-1.135 3.89-2.267 5.83-3.407.35-.205.684-.317 1.069-.092 3 1.751 6.004 3.499 9.058 5.278-.13.097-.22.179-.323.239-2.93 1.71-5.861 3.417-8.789 5.13-.242.143-.433.217-.72.049-2.966-1.746-5.942-3.474-8.915-5.209-.083-.048-.157-.112-.277-.198" fill="#fff" fill-rule="evenodd" data-name="Pfad 2499"/><path d="M1169.504 2057.6c-1.57 0-3.075.013-4.58-.01-.259-.005-.603-.089-.75-.266-.157-.19-.21-.552-.157-.806.082-.382.43-.51.813-.51 1.374.003 2.749.002 4.124.002h.55c0-.723-.002-1.413 0-2.102.002-.821.253-1.08 1.055-1.081 1.954-.002 3.909-.002 5.863 0 .776 0 1.038.266 1.039 1.048.002 1.954.002 3.909 0 5.863-.001.78-.266 1.044-1.043 1.045-1.954.002-3.909.002-5.863 0-.784 0-1.048-.262-1.05-1.036-.003-.693-.001-1.386-.001-2.146" fill="#fff" fill-rule="evenodd" data-name="Pfad 2500"/><path d="M1151.2 2074.313c0-1.043-.003-2.018 0-2.993.004-.622.306-.987.803-.982.494.005.785.368.787.997.004.974.001 1.948.001 2.978.745 0 1.452-.002 2.158 0 .749.004 1.023.272 1.024 1.013.003 1.97.003 3.942 0 5.912 0 .752-.27 1.03-1.005 1.032-1.988.003-3.975.003-5.962 0-.71-.002-.987-.283-.988-.999-.003-1.987-.003-3.974 0-5.962.001-.715.278-.99.99-.995.71-.004 1.419 0 2.192 0" fill="#fff" fill-rule="evenodd" data-name="Pfad 2501"/></g></svg>