<svg xmlns="http://www.w3.org/2000/svg" width="63.682" height="44.577" viewBox="372.159 2034.694 63.682 44.577"><path d="M425.652 2054.057a9.618 9.618 0 0 0 .636-3.443c0-5.273-4.278-9.552-9.552-9.552-1.96 0-3.79.597-5.303 1.612-2.756-4.776-7.9-7.98-13.801-7.98-8.796 0-15.92 7.124-15.92 15.92 0 .27.01.538.02.806-5.573 1.96-9.573 7.274-9.573 13.523 0 7.91 6.418 14.328 14.329 14.328h36.616c7.035 0 12.737-5.701 12.737-12.736 0-6.16-4.378-11.304-10.19-12.478Z" fill="#fff" fill-rule="evenodd" data-name="Icon awesome-cloud"/></svg>