<svg xmlns="http://www.w3.org/2000/svg" width="39.08" height="51.985" viewBox="758.46 2031.339 39.08 51.985"><path d="M778.1 2083.324h-.203c-.248-.137-.49-.287-.745-.411-3.034-1.474-6.013-3.044-8.756-5.023-2.836-2.047-5.262-4.472-6.977-7.556-2.079-3.737-2.879-7.803-2.923-12.017-.066-6.356-.019-12.712-.036-19.069 0-.414.11-.612.511-.764 6.22-2.352 12.431-4.725 18.65-7.078.225-.085.536-.09.76-.006 6.218 2.353 12.429 4.726 18.646 7.082.366.138.514.29.513.713-.018 6 .019 12.001-.031 18.001a41.483 41.483 0 0 1-.407 5.517c-.765 5.351-3.17 9.845-7.27 13.408-2.367 2.058-5.01 3.699-7.77 5.162-1.312.696-2.64 1.362-3.961 2.041m7.315-36.467-10.57 10.57-4.903-4.908-4.775 4.776 9.553 9.557 15.343-15.344-4.648-4.651" fill="#fff" fill-rule="evenodd" data-name="Pfad 2483"/></svg>