<svg xmlns="http://www.w3.org/2000/svg" width="129.168" height="33.705" viewBox="0 0 129.168 33.705">
  <g id="Icon_awesome-arrow-right" data-name="Icon awesome-arrow-right" transform="translate(1.5 1.5)">
    <path id="Icon_awesome-arrow-right-2" data-name="Icon awesome-arrow-right" d="M-76.555,4.7l-1.561-1.561a1.681,1.681,0,0,0-2.384,0L-94.168,16.8a1.68,1.68,0,0,0,0,2.384L-80.5,32.857a1.681,1.681,0,0,0,2.384,0l1.561-1.561a1.689,1.689,0,0,0-.028-2.412l-8.473-8.072H29.816A1.683,1.683,0,0,0,31.5,19.125v-2.25a1.683,1.683,0,0,0-1.687-1.687H-85.056l8.473-8.072A1.677,1.677,0,0,0-76.555,4.7Z" transform="translate(94.664 -2.647)" fill="#ff4d00" stroke="#f3f3f3" stroke-width="3"/>
  </g>
</svg>
