<svg xmlns="http://www.w3.org/2000/svg" width="56.547" height="56.547" viewBox="0 0 56.547 56.547">
  <path id="Pfad_30" data-name="Pfad 30" d="M43.028,11.424H13.5A13.49,13.49,0,0,0,0,24.915V54.452a13.5,13.5,0,0,0,13.5,13.5H43.042a13.5,13.5,0,0,0,13.5-13.5V24.915a13.5,13.5,0,0,0-13.5-13.5Zm7.164,41.237a8.954,8.954,0,0,1-8.955,8.955H15.281a8.953,8.953,0,0,1-8.955-8.955V26.706a8.954,8.954,0,0,1,8.955-8.955H41.237a8.954,8.954,0,0,1,8.955,8.955Z" transform="translate(0 -11.41)" fill="#ff4d00"/>
</svg>
